<svg width="1434" height="699" viewBox="0 0 1434 699" fill="none" xmlns="http://www.w3.org/2000/svg">
<path d="M0 0H1440V779H0V0Z" fill="url(#paint0_linear_322_149)"/>
<path d="M1448.38 225.451C1413.7 201.226 1309.56 195.484 1259.67 231.042C1209.79 266.6 1175.22 276.929 1087.07 276.929C998.914 276.929 899.627 308.493 871.654 420.542C817.744 636.471 762.062 547.369 751 734.16C849.848 734.16 1448.37 732.31 1448.37 732.31V225.451H1448.38Z" fill="url(#paint1_linear_322_149)"/>
<path d="M1448.38 287.564C1376.15 277.824 1298.27 298.74 1230.71 340.328C1163.15 381.915 1012.22 349.198 962.773 423.208C913.325 497.218 803.079 583.995 821.227 735.355C842.972 735.355 860.772 735.355 881.046 735.355C867.828 625.559 929.558 645.052 942.265 546.888C948.763 496.671 1011.1 449.463 1076.39 429.747C1141.67 410.032 1225.56 430.03 1287.22 383.993C1348.88 337.961 1397.93 367.148 1448.38 385.488C1448.38 342.568 1448.38 310.043 1448.38 287.564Z" fill="url(#paint2_linear_322_149)"/>
<path d="M1448.38 484.024C1405.13 484.024 1322.1 499.878 1243.37 578.609C1164.63 657.339 1016.37 618.785 953.831 733.823C995.803 733.823 1042.01 733.223 1071.16 733.223C1107.19 697.191 1147.67 676.58 1187.05 668.131C1226.43 659.681 1237.57 583.911 1448.38 575.852C1448.38 538.961 1448.38 504.767 1448.38 484.024Z" fill="url(#paint3_linear_322_149)"/>
<path d="M837.644 650.953C838.17 650.953 838.591 650.526 838.591 650.006V632.794H895.23V650.006C895.23 650.526 895.656 650.953 896.177 650.953C896.697 650.953 897.124 650.526 897.124 650.006V630.9H836.696V650.006C836.696 650.526 837.123 650.953 837.644 650.953Z" fill="#B32755"/>
<path d="M835.749 632.286C835.749 634.394 837.455 636.1 839.563 636.1H894.051C896.158 636.1 897.864 634.394 897.864 632.286C897.864 630.179 896.158 628.473 894.051 628.473H839.563C837.455 628.473 835.749 630.179 835.749 632.286Z" fill="#951F46"/>
<path d="M818.268 712.064C818.268 717.646 822.791 722.169 828.373 722.169H910.177C915.759 722.169 920.281 717.646 920.281 712.064V656.899C920.281 651.316 915.759 646.794 910.177 646.794H828.379C822.797 646.794 818.275 651.316 818.275 656.899V712.064H818.268Z" fill="url(#paint4_linear_322_149)"/>
<path d="M853.801 681.637H866.433V669.005H872.122V681.637H884.755V687.326H872.122V699.952H866.433V687.326H853.801V681.637Z" fill="#FACA6E"/>
<path d="M826.008 714.322C826.529 714.322 826.955 713.896 826.955 713.375V655.582C826.955 655.061 826.529 654.635 826.008 654.635C825.488 654.635 825.061 655.061 825.061 655.582V713.375C825.061 713.902 825.481 714.322 826.008 714.322Z" fill="#B32755"/>
<path d="M912.541 714.322C913.062 714.322 913.488 713.896 913.488 713.375V655.582C913.488 655.061 913.062 654.635 912.541 654.635C912.021 654.635 911.594 655.061 911.594 655.582V713.375C911.6 713.902 912.021 714.322 912.541 714.322Z" fill="#B32755"/>
<path d="M895.255 722.169L828.373 722.169C822.791 722.169 818.268 717.646 818.268 712.064L818.268 672.875C833.19 706.143 873.346 718.06 895.255 722.169Z" fill="black"/>
<path d="M959.665 614.312C955.764 628.645 951.254 628.814 944.85 625.508C938.446 622.203 910.396 601.58 898.943 584.582C913.118 590.59 954.001 608.648 959.665 614.312Z" fill="url(#paint5_linear_322_149)"/>
<path d="M1067.1 407.646C1084.99 414.025 1097.67 418.271 1114.89 427.479C1132.11 436.687 1132.03 460.866 1132.03 473.48C1132.03 486.094 1134.43 551.558 1134.43 577.983C1131.13 578.736 1125.57 577.337 1121.82 575.85C1114.01 598.675 1117.01 650.654 1130.23 702.902C1067.77 702.902 985.488 702.902 957.263 702.902C957.263 676.477 962.67 657.259 962.67 627.227C962.67 597.195 956.065 532.935 943.451 520.322C948.858 482.487 950.056 444.847 960.067 434.836C970.077 424.826 989.22 414.696 1003.87 407.947C1025.73 407.953 1047.21 410.475 1067.1 407.646Z" fill="#606ABF"/>
<path d="M1013.88 460.465C1013.97 460.465 1014.05 460.459 1014.14 460.44L1049.57 452.662L1053.22 434.78L1069.96 439.986L1075.43 412.055C1075.56 411.403 1075.13 410.769 1074.48 410.644C1073.83 410.512 1073.19 410.939 1073.07 411.591L1068.11 436.9L1051.39 431.7L1047.52 450.655L1013.62 458.094C1012.97 458.238 1012.56 458.878 1012.7 459.524C1012.84 460.082 1013.33 460.465 1013.88 460.465Z" fill="#4E569C"/>
<path d="M1010.11 458.464C1010.5 458.464 1010.88 458.276 1011.12 457.925C1011.48 457.373 1011.33 456.626 1010.78 456.262L994.477 445.518L998.121 430.715L986.868 428.42L997.6 413.598C997.964 413.046 997.813 412.3 997.261 411.936C996.709 411.572 995.963 411.723 995.599 412.275L982.91 430.063L995.192 432.572L991.742 446.597L1009.46 458.276C1009.66 458.401 1009.89 458.464 1010.11 458.464Z" fill="#4E569C"/>
<path d="M1010.11 704.1C1010.19 704.1 1010.27 704.094 1010.35 704.075C1011 703.944 1011.42 703.316 1011.29 702.664C998.691 638.68 998.698 556.168 998.704 525.107V523.721C998.704 493.884 1014.83 455.616 1014.99 455.234C1015.25 454.625 1014.97 453.916 1014.36 453.659C1013.74 453.396 1013.04 453.684 1012.79 454.293C1012.62 454.682 996.302 493.394 996.302 523.721V525.107C996.302 556.231 996.289 638.912 1008.93 703.128C1009.05 703.705 1009.55 704.1 1010.11 704.1Z" fill="#4E569C"/>
<path d="M1077.98 562.365C1078.64 562.365 1079.18 561.826 1079.18 561.167C1079.18 528.532 1080.97 469.905 1080.98 469.315C1081 468.65 1080.48 468.098 1079.82 468.079C1079.13 468.073 1078.6 468.581 1078.58 469.246C1078.56 469.836 1076.78 528.501 1076.78 561.173C1076.78 561.826 1077.31 562.365 1077.98 562.365Z" fill="#4E569C"/>
<path d="M950.658 524.524C951.217 524.524 951.718 524.135 951.831 523.57C957.752 495.132 969.695 458 969.814 457.63C970.015 456.996 969.67 456.325 969.042 456.118C968.409 455.917 967.732 456.262 967.531 456.896C967.412 457.266 955.432 494.523 949.479 523.081C949.341 523.733 949.761 524.367 950.407 524.499C950.495 524.518 950.577 524.524 950.658 524.524Z" fill="#4E569C"/>
<path d="M1067.32 345.455C1069.59 324.87 1083.18 283.303 1053.99 270.413C1024.8 257.524 1004.73 260.547 985.633 269.316C966.54 278.084 957.921 299.561 974.963 327.692C983.356 334.667 1062.88 403.901 1081.79 369.836C1084.81 364.373 1087.39 343.549 1067.32 345.455Z" fill="#42363A"/>
<path d="M974.957 327.686C973.389 305.426 993.053 291.896 1005.75 291.896C1023.5 291.896 1032.19 306.724 1036.35 311.917C1040.51 317.111 1050.35 339.936 1058.95 331.337C1065.46 321.627 1071.12 323.126 1073.42 329.775C1075.36 335.382 1076.83 359.073 1061.81 352.844C1060.42 359.242 1058.61 368.519 1052.31 376.66C1052.19 385.912 1049.31 396.945 1054.56 400.802C1059.55 404.472 1063.11 405.457 1067.1 407.639C1049.8 424.938 1027.62 441.039 1013.89 454.763C1009.32 445.248 1005.75 434.134 1003.87 407.947C1005.47 406.667 1004.11 396.199 1001.53 391.889C978.683 375.18 976.193 345.154 974.957 327.686Z" fill="url(#paint6_linear_322_149)"/>
<path d="M1060.42 338.248C1063.16 334.165 1065.64 331.807 1067.94 334.679C1070.25 337.558 1069.32 351.364 1061.31 344.633C1062.85 343.398 1062.84 339.377 1060.42 338.248Z" fill="url(#paint7_linear_322_149)"/>
<path d="M1052.31 376.666C1040.74 398.406 1017.32 405.814 1001.53 391.896C1010.11 396.198 1032.41 399.404 1052.31 376.666Z" fill="url(#paint8_linear_322_149)"/>
<path d="M1003.76 357.41C1005.34 357.41 1007.22 357.09 1009.39 356.313C1009.83 356.156 1010.06 355.679 1009.9 355.24C1009.74 354.801 1009.27 354.569 1008.83 354.732C1003.57 356.601 1000.49 355.541 999.457 354.061C998.798 353.12 998.88 351.934 999.67 350.969C1002.31 347.757 1006.41 340.726 1006.58 340.431C1006.81 340.03 1006.68 339.515 1006.28 339.283C1005.88 339.045 1005.37 339.183 1005.13 339.584C1005.09 339.66 1000.93 346.791 998.372 349.902C997.098 351.451 996.979 353.465 998.077 355.033C999.011 356.35 1000.89 357.41 1003.76 357.41Z" fill="url(#paint9_linear_322_149)"/>
<path d="M1023.12 364.498C1020.42 366.769 1017.14 368.757 1013.66 369.541C1011.72 369.98 1009.82 370.087 1007.84 369.98C1005.91 369.874 1004.07 369.365 1002.18 369.083C1005.58 371.761 1009.91 372.947 1014.16 371.881C1017.87 370.952 1021.75 368.199 1023.12 364.498Z" fill="url(#paint10_linear_322_149)"/>
<path d="M988.436 337.64C988.411 339.804 989.797 341.573 991.541 341.598C993.285 341.623 994.721 339.892 994.752 337.728C994.784 335.57 993.391 333.795 991.648 333.77C989.904 333.751 988.467 335.482 988.436 337.64Z" fill="#42363A"/>
<path d="M1020.99 336.655C1020.96 338.819 1022.35 340.588 1024.09 340.613C1025.84 340.638 1027.28 338.907 1027.31 336.743C1027.34 334.585 1025.95 332.816 1024.2 332.785C1022.46 332.766 1021.02 334.497 1020.99 336.655Z" fill="#42363A"/>
<path d="M996.176 332.271C995.01 331.054 993.235 330.515 991.597 330.395C990.531 330.383 989.503 330.521 988.518 330.966C988.361 331.035 986.843 331.882 986.95 332.139C988.493 331.982 989.96 331.775 991.529 331.838C993.078 331.863 994.627 332.139 996.176 332.271Z" fill="url(#paint11_linear_322_149)"/>
<path d="M999.043 326.877C997.682 329.11 994.558 327.184 991.183 327.14C987.803 327.09 984.648 329.11 983.487 327.918C982.327 326.726 983.964 322.536 990.82 322.63C996.264 322.706 1001.11 323.477 999.043 326.877Z" fill="#42363A"/>
<path d="M1019.08 330.835C1020.63 330.759 1022.19 330.534 1023.74 330.565C1025.3 330.565 1026.76 330.816 1028.3 331.029C1028.42 330.778 1026.92 329.875 1026.77 329.8C1025.81 329.323 1024.78 329.141 1023.72 329.122C1022.08 329.179 1020.29 329.662 1019.08 330.835Z" fill="url(#paint12_linear_322_149)"/>
<path d="M1016.4 325.34C1017.68 327.617 1020.87 325.804 1024.25 325.873C1027.62 325.948 1030.71 328.075 1031.9 326.921C1033.1 325.773 1031.62 321.526 1024.75 321.382C1019.33 321.276 1014.45 321.871 1016.4 325.34Z" fill="#42363A"/>
<path d="M1072.37 301.499C1054.56 288.697 998.039 251.396 965.837 298.275C962.864 285.097 963.265 273.085 963.265 264.273C987.288 251.86 1032.53 235.445 1092.99 287.894C1083.98 296.908 1080.17 299.09 1072.37 301.499Z" fill="#FCF4E6"/>
<path d="M1085.31 293.721C1086.13 293.721 1086.96 293.383 1087.55 292.724C1088.66 291.489 1088.55 289.594 1087.32 288.484C1086.65 287.882 1070.71 273.675 1047.58 264.191C1016.59 251.49 987.715 253.673 964.068 270.508C962.72 271.467 962.4 273.343 963.366 274.698C964.325 276.046 966.201 276.366 967.556 275.4C1020.65 237.597 1082.68 292.392 1083.31 292.95C1083.88 293.471 1084.6 293.721 1085.31 293.721Z" fill="#606ABF"/>
<path d="M972.279 555.271L962.67 627.227L834.143 545.994L855.162 475.876L972.279 555.271Z" fill="#424985"/>
<path d="M967.161 557.56L857.865 483.465L839.745 543.899L958.925 619.223L967.161 557.56Z" fill="#FCF4E6"/>
<path d="M851.261 526.55C851.524 526.55 851.769 526.374 851.838 526.111L858.744 500.965C858.813 500.727 858.719 500.47 858.518 500.319L849.925 494.047C849.655 493.852 849.279 493.909 849.084 494.178C848.89 494.448 848.946 494.824 849.216 495.019L857.477 501.047L850.834 525.226L841.087 522.749C840.773 522.667 840.441 522.862 840.359 523.182C840.278 523.502 840.472 523.828 840.792 523.909L851.11 526.531C851.16 526.544 851.211 526.55 851.261 526.55Z" fill="#88ADD9"/>
<path d="M858.166 544.646C858.423 544.646 858.662 544.476 858.743 544.219L869.256 509.289C869.35 508.969 869.174 508.636 868.854 508.542C868.541 508.442 868.202 508.624 868.108 508.944L857.596 543.874C857.501 544.194 857.677 544.526 857.997 544.621C858.047 544.639 858.11 544.646 858.166 544.646Z" fill="#B39AA2"/>
<path d="M864.52 548.848C864.784 548.848 865.022 548.679 865.097 548.415L876.783 507.601C876.877 507.282 876.689 506.949 876.369 506.861C876.055 506.767 875.716 506.955 875.629 507.275L863.943 548.089C863.849 548.409 864.037 548.742 864.357 548.829C864.407 548.842 864.464 548.848 864.52 548.848Z" fill="#B39AA2"/>
<path d="M871.232 552.154C871.495 552.154 871.734 551.984 871.809 551.721L883.419 511.289C883.513 510.97 883.325 510.637 883.005 510.549C882.685 510.455 882.353 510.643 882.259 510.963L870.648 551.395C870.554 551.715 870.743 552.047 871.062 552.135C871.119 552.147 871.175 552.154 871.232 552.154Z" fill="#B39AA2"/>
<path d="M877.159 555.992C877.422 555.992 877.661 555.816 877.736 555.553L889.089 515.473C889.177 515.153 888.995 514.82 888.675 514.733C888.361 514.645 888.023 514.827 887.935 515.147L876.582 555.227C876.494 555.547 876.676 555.879 876.996 555.967C877.052 555.986 877.103 555.992 877.159 555.992Z" fill="#B39AA2"/>
<path d="M883.588 559.962C883.852 559.962 884.09 559.793 884.165 559.53L895.681 519.788C895.775 519.468 895.587 519.136 895.273 519.042C894.954 518.948 894.621 519.136 894.527 519.45L883.011 559.191C882.917 559.511 883.105 559.843 883.419 559.937C883.475 559.95 883.532 559.962 883.588 559.962Z" fill="#B39AA2"/>
<path d="M991.974 525.948L992.219 522.354L905.736 516.545L902.311 517.919L905.491 520.139L991.974 525.948Z" fill="#88ADD9"/>
<path d="M1077.98 561.161C1064.77 565.633 1011.32 563.193 993.297 555.271C975.277 547.349 969.074 534.34 960.863 526.13C952.653 517.919 929.031 511.315 923.925 511.315C918.82 511.315 922.721 515.818 928.429 517.919C933.347 519.732 940.717 523.276 946.299 526.625C932.788 526.625 924.076 526.776 924.528 533.33C922.552 535.306 923.474 538.486 925.28 539.458C923.894 540.845 924.528 544.382 926.033 545.988C926.033 551.545 931.208 551.457 935.416 553.145C939.619 554.832 945.916 559.229 950.062 563.375C954.208 567.521 956.968 578.573 989.101 581.276C1021.23 583.979 1089 616.608 1102.21 611.803C1115.42 606.999 1121.83 591.124 1121.83 575.838C1109.41 570.569 1093 564.567 1077.98 561.161Z" fill="url(#paint13_linear_322_149)"/>
<path d="M947.553 533.932C947.823 533.932 948.068 533.744 948.137 533.475C948.212 533.155 948.017 532.829 947.691 532.747C934.369 529.542 924.741 532.628 924.339 532.76C924.026 532.86 923.856 533.205 923.957 533.518C924.063 533.832 924.402 534.008 924.716 533.901C924.81 533.87 934.432 530.796 947.409 533.914C947.459 533.932 947.503 533.932 947.553 533.932Z" fill="url(#paint14_linear_322_149)"/>
<path d="M945.847 541.641C946.123 541.641 946.368 541.453 946.43 541.177C946.506 540.851 946.305 540.531 945.979 540.456C936.094 538.16 925.343 538.863 925.23 538.863C924.898 538.888 924.647 539.17 924.672 539.503C924.697 539.835 924.985 540.092 925.312 540.061C925.418 540.048 936 539.365 945.703 541.623C945.759 541.635 945.803 541.641 945.847 541.641Z" fill="url(#paint15_linear_322_149)"/>
<path d="M944.85 548.848C945.132 548.848 945.383 548.647 945.439 548.359C945.502 548.033 945.289 547.719 944.963 547.656C933.93 545.568 926.121 545.392 926.045 545.392C926.039 545.392 926.039 545.392 926.033 545.392C925.707 545.392 925.437 545.655 925.431 545.982C925.424 546.314 925.688 546.584 926.02 546.596C926.095 546.596 933.81 546.772 944.737 548.836C944.774 548.848 944.812 548.848 944.85 548.848Z" fill="url(#paint16_linear_322_149)"/>
<path d="M875.999 572.451C878.307 567.226 886.398 555.66 889.999 557.56C891.397 558.294 890.826 561.462 888.794 565.633C888.01 566.649 894.822 557.059 898.197 559.781C900.95 562.001 898.159 564.993 895.7 570.074C899.106 566.674 902.261 562.133 905.661 564.24C907.912 565.633 905.24 570.876 903.271 574.577C909.317 568.531 910.81 574.169 908.609 579.576C906.407 584.983 902.901 591.494 896.697 595.495C890.488 599.497 889.49 595.194 883.983 590.992C878.257 586.607 871.081 581.282 875.999 572.451Z" fill="url(#paint17_linear_322_149)"/>
<path d="M880.07 578.667C880.252 578.667 880.433 578.585 880.553 578.428C884.918 572.564 889.252 566.028 889.296 565.965C889.478 565.689 889.403 565.313 889.127 565.131C888.851 564.949 888.481 565.024 888.293 565.3C888.249 565.363 883.933 571.874 879.587 577.707C879.386 577.97 879.442 578.347 879.712 578.547C879.819 578.629 879.944 578.667 880.07 578.667Z" fill="url(#paint18_linear_322_149)"/>
<path d="M886.994 583.584C887.201 583.584 887.396 583.477 887.508 583.289C890.168 578.855 896.133 570.5 896.189 570.418C896.384 570.149 896.321 569.772 896.051 569.578C895.782 569.384 895.405 569.446 895.211 569.716C895.148 569.797 889.158 578.196 886.474 582.668C886.304 582.951 886.392 583.321 886.68 583.49C886.781 583.559 886.888 583.584 886.994 583.584Z" fill="url(#paint19_linear_322_149)"/>
<path d="M894.602 587.285C894.784 587.285 894.96 587.203 895.079 587.047C898.253 582.882 903.716 574.991 903.773 574.916C903.961 574.646 903.892 574.27 903.622 574.082C903.352 573.893 902.976 573.956 902.788 574.232C902.731 574.314 897.287 582.179 894.126 586.319C893.925 586.582 893.975 586.959 894.239 587.159C894.345 587.247 894.471 587.285 894.602 587.285Z" fill="url(#paint20_linear_322_149)"/>
<path d="M1200.13 329.662C1169.44 339.428 1148.27 343.844 1141.07 359.43C1134.58 373.449 1115.73 439.365 1110.84 466.16C1098.37 534.397 1077.3 572.269 1150.54 572.269C1150.54 617.611 1147.81 651.018 1138.04 709.614C1184.08 709.614 1331.27 709.614 1371.03 709.614C1366.14 677.525 1362.66 612.65 1362.66 579.865C1399.63 585.215 1418.92 575.913 1415.44 529.172C1411.32 474.057 1406.91 358.54 1388.08 349.47C1369.25 340.4 1331.21 329.028 1313.45 322.957C1287.32 337.797 1246.17 332.685 1200.13 329.662Z" fill="#FCF4E6"/>
<path d="M1245.01 460.81C1244.55 460.81 1244.11 460.584 1243.84 460.176C1235.2 446.892 1223.14 435.884 1209.18 423.132C1202.3 416.847 1195.19 410.349 1187.81 402.973C1187.55 402.709 1187.41 402.358 1187.41 401.988C1187.41 401.618 1187.55 401.261 1187.81 401.003C1190.38 398.438 1192.14 396.381 1194.37 393.771C1197.44 390.177 1201.2 385.774 1208.75 378.122C1206.91 377.959 1204.91 377.689 1202.59 377.382C1196.65 376.579 1188.52 375.488 1176.4 375.488C1175.99 375.488 1175.6 375.306 1175.33 374.992C1175.07 374.672 1174.96 374.258 1175.03 373.851C1178.52 354.331 1190.06 331.983 1190.18 331.757C1190.53 331.073 1191.38 330.804 1192.06 331.161C1192.74 331.519 1193.01 332.359 1192.66 333.043C1192.54 333.256 1181.83 354.011 1178.09 372.709C1189.48 372.803 1197.24 373.851 1202.97 374.622C1206.58 375.105 1209.42 375.494 1211.96 375.494C1212.53 375.494 1213.04 375.833 1213.25 376.353C1213.47 376.874 1213.34 377.476 1212.95 377.871C1203.97 386.853 1199.83 391.695 1196.49 395.59C1194.59 397.811 1192.92 399.768 1190.77 401.988C1197.76 408.919 1204.52 415.104 1211.08 421.087C1225.18 433.971 1237.35 445.092 1246.19 458.671C1246.61 459.317 1246.43 460.183 1245.78 460.603C1245.54 460.735 1245.27 460.81 1245.01 460.81Z" fill="#DBCDB4"/>
<path d="M1264.31 510.8C1264.24 510.8 1264.18 510.794 1264.12 510.788C1253.59 509.377 1215.66 501.536 1214.05 501.204C1213.3 501.047 1212.81 500.313 1212.97 499.554C1213.12 498.801 1213.86 498.306 1214.62 498.469C1215.01 498.551 1254.06 506.623 1264.49 508.015C1265.25 508.116 1265.79 508.818 1265.69 509.584C1265.59 510.292 1264.99 510.8 1264.31 510.8Z" fill="#DBCDB4"/>
<path d="M1186 574.282C1174.32 574.282 1162.24 574.113 1150.49 573.661C1149.72 573.63 1149.12 572.984 1149.15 572.212C1149.18 571.441 1149.82 570.826 1150.59 570.87C1184.6 572.181 1221.41 571.102 1243.4 570.456C1249.58 570.274 1254.29 570.136 1257.32 570.099V555.961C1257.32 555.189 1257.95 554.568 1258.72 554.568C1259.49 554.568 1260.11 555.196 1260.11 555.961V571.479C1260.11 572.25 1259.48 572.871 1258.72 572.871C1255.87 572.871 1250.68 573.022 1243.48 573.235C1229.05 573.668 1208.23 574.282 1186 574.282Z" fill="#DBCDB4"/>
<path d="M1362.66 581.257C1362.6 581.257 1362.54 581.257 1362.48 581.245C1361.95 581.176 1308.62 574.301 1258.48 565.489C1257.72 565.357 1257.21 564.629 1257.34 563.877C1257.47 563.118 1258.2 562.61 1258.95 562.741C1309.03 571.535 1362.3 578.403 1362.83 578.472C1363.6 578.573 1364.14 579.269 1364.03 580.034C1363.95 580.743 1363.35 581.257 1362.66 581.257Z" fill="#DBCDB4"/>
<path d="M1158.77 448.209C1158.7 448.209 1158.65 448.209 1158.59 448.196C1157.83 448.102 1157.29 447.4 1157.38 446.634C1159.71 428.169 1165.56 393.031 1165.62 392.68C1165.74 391.921 1166.46 391.407 1167.22 391.532C1167.98 391.657 1168.5 392.379 1168.37 393.138C1168.31 393.489 1162.47 428.576 1160.15 446.979C1160.05 447.688 1159.46 448.209 1158.77 448.209Z" fill="#DBCDB4"/>
<path d="M1356.14 481.502C1355.37 481.502 1354.75 480.875 1354.75 480.11C1354.75 445.637 1354.29 393.451 1354.29 392.925C1354.28 392.153 1354.9 391.526 1355.67 391.52C1355.67 391.52 1355.67 391.52 1355.68 391.52C1356.45 391.52 1357.07 392.134 1357.07 392.906C1357.08 393.426 1357.54 445.625 1357.54 480.116C1357.54 480.881 1356.92 481.502 1356.14 481.502Z" fill="#DBCDB4"/>
<path d="M1250.35 508.398C1249.58 508.398 1248.96 507.771 1248.96 507.006V457.561C1248.96 456.79 1249.58 456.169 1250.35 456.169C1251.12 456.169 1251.74 456.796 1251.74 457.561V507.006C1251.75 507.771 1251.12 508.398 1250.35 508.398Z" fill="#DBCDB4"/>
<path d="M1256.78 711C1256.06 711 1255.45 710.436 1255.39 709.702C1251.42 651.752 1248.98 572.821 1248.95 572.031C1248.93 571.259 1249.53 570.62 1250.3 570.594C1251.08 570.544 1251.71 571.178 1251.74 571.943C1251.76 572.733 1254.19 651.614 1258.17 709.514C1258.22 710.279 1257.64 710.95 1256.87 711C1256.85 711 1256.82 711 1256.78 711Z" fill="#DBCDB4"/>
<path d="M1256.78 460.81C1256.5 460.81 1256.21 460.729 1255.97 460.547C1255.34 460.095 1255.2 459.223 1255.66 458.596C1275.17 431.606 1295.33 415.367 1321.5 395.728C1319.69 393.746 1318.77 392.21 1317.73 390.472C1315.76 387.192 1313.07 382.688 1301.95 371.574C1301.59 371.216 1301.46 370.696 1301.59 370.213C1301.73 369.73 1302.11 369.353 1302.6 369.234C1310.18 367.378 1315.93 366.681 1321.48 366.017C1326.42 365.421 1331.1 364.862 1336.64 363.508C1333.12 344.452 1325.85 328.176 1325.77 328.006C1325.46 327.304 1325.77 326.476 1326.48 326.162C1327.18 325.842 1328.01 326.162 1328.32 326.865C1328.4 327.034 1336.14 344.364 1339.62 364.304C1339.74 365.019 1339.3 365.715 1338.59 365.897C1332.32 367.522 1327.22 368.137 1321.82 368.789C1316.95 369.372 1311.94 369.981 1305.68 371.379C1315.58 381.459 1318.19 385.818 1320.12 389.042C1321.31 391.018 1322.25 392.586 1324.58 394.919C1324.86 395.208 1325.01 395.603 1324.98 396.004C1324.95 396.406 1324.75 396.782 1324.42 397.021C1297.84 416.935 1277.51 433.13 1257.91 460.233C1257.65 460.609 1257.22 460.81 1256.78 460.81Z" fill="#DBCDB4"/>
<path d="M1267.1 471.159C1267.1 474.007 1264.79 476.315 1261.95 476.315C1259.1 476.315 1256.79 474.007 1256.79 471.159C1256.79 468.311 1259.1 466.003 1261.95 466.003C1264.79 466.003 1267.1 468.311 1267.1 471.159Z" fill="#CCB893"/>
<path d="M1267.11 590.089C1267.11 592.936 1264.8 595.251 1261.95 595.251C1259.11 595.251 1256.79 592.942 1256.79 590.089C1256.79 587.241 1259.1 584.933 1261.95 584.933C1264.79 584.933 1267.11 587.241 1267.11 590.089Z" fill="#CCB893"/>
<path d="M1269.46 653.433C1269.46 656.28 1267.15 658.595 1264.31 658.595C1261.46 658.595 1259.14 656.287 1259.14 653.433C1259.14 650.585 1261.45 648.277 1264.31 648.277C1267.15 648.277 1269.46 650.585 1269.46 653.433Z" fill="#CCB893"/>
<path d="M1214.33 499.843C1203.64 480.311 1193.16 467.503 1181.59 460.289C1170.95 453.659 1148.57 439.246 1144.67 443.141C1139.79 448.027 1153.16 453.139 1166.41 462.673C1150.54 456.275 1135.6 449.131 1132.7 452.035C1129.8 454.945 1132.12 457.442 1134.09 459.417C1129.96 458.226 1128.42 463.488 1131.91 466.976C1128.87 470.011 1132.29 475.838 1142.23 481.509C1157.58 486.388 1200.15 496.587 1214.33 499.843Z" fill="url(#paint21_linear_322_149)"/>
<path d="M1166.99 474.352C1166.91 474.352 1166.83 474.339 1166.75 474.308C1155.34 470.162 1134 460.145 1133.79 460.038C1133.45 459.875 1133.3 459.461 1133.46 459.11C1133.62 458.765 1134.04 458.615 1134.39 458.778C1134.6 458.878 1155.88 468.87 1167.23 472.997C1167.59 473.129 1167.78 473.53 1167.64 473.888C1167.54 474.176 1167.27 474.352 1166.99 474.352Z" fill="url(#paint22_linear_322_149)"/>
<path d="M1162.98 482.374C1162.9 482.374 1162.82 482.362 1162.74 482.33C1149.07 477.143 1131.75 467.678 1131.58 467.584C1131.24 467.402 1131.11 466.976 1131.3 466.637C1131.48 466.298 1131.91 466.173 1132.25 466.361C1132.42 466.455 1149.66 475.87 1163.23 481.026C1163.59 481.164 1163.77 481.565 1163.63 481.923C1163.53 482.205 1163.26 482.374 1162.98 482.374Z" fill="url(#paint23_linear_322_149)"/>
<path d="M1264.3 509.408C1281.74 511.848 1303.36 514.294 1307.2 514.294C1311.04 514.294 1348.24 484.764 1356.14 480.11C1364.05 475.462 1373.35 475.456 1354.75 496.154C1370.1 496.154 1395.97 494.85 1403.47 496.154C1407.09 496.788 1406.37 502.608 1403.12 503.129C1406 504.961 1405.12 508.185 1402.47 509.884C1405.56 512.193 1403.39 515.58 1401.03 517.951C1405.3 521.262 1395.62 528.237 1368.94 537.131C1351.11 543.077 1350.46 552.655 1336.51 552.655C1324.01 552.655 1310.7 549.344 1305.46 549.344C1300.23 549.344 1269.71 553.527 1258.73 555.973C1258.72 544.112 1261.34 517.254 1264.3 509.408Z" fill="url(#paint24_linear_322_149)"/>
<path d="M1361.09 507.137C1360.75 507.137 1360.45 506.892 1360.4 506.554C1360.33 506.171 1360.6 505.814 1360.97 505.751C1377.06 503.16 1402.84 502.439 1403.09 502.433C1403.48 502.433 1403.8 502.728 1403.81 503.11C1403.82 503.499 1403.51 503.819 1403.13 503.825C1402.87 503.831 1377.18 504.553 1361.19 507.131C1361.16 507.137 1361.12 507.137 1361.09 507.137Z" fill="url(#paint25_linear_322_149)"/>
<path d="M1363.88 517.48C1363.56 517.48 1363.28 517.267 1363.2 516.947C1363.11 516.57 1363.34 516.194 1363.72 516.106C1377.02 512.876 1402.11 509.232 1402.37 509.194C1402.75 509.131 1403.1 509.401 1403.16 509.784C1403.21 510.166 1402.95 510.518 1402.57 510.574C1402.32 510.612 1377.29 514.243 1364.05 517.461C1363.99 517.474 1363.93 517.48 1363.88 517.48Z" fill="url(#paint26_linear_322_149)"/>
<path d="M1365.8 527.372C1365.49 527.372 1365.21 527.171 1365.13 526.857C1365.03 526.487 1365.25 526.098 1365.62 525.998C1376.32 523.063 1400.62 517.33 1400.87 517.273C1401.24 517.185 1401.62 517.417 1401.71 517.794C1401.79 518.17 1401.56 518.546 1401.19 518.634C1400.94 518.691 1376.66 524.424 1365.99 527.347C1365.92 527.359 1365.85 527.372 1365.8 527.372Z" fill="url(#paint27_linear_322_149)"/>
<path d="M1341.73 500.539C1341.46 500.539 1341.2 500.375 1341.08 500.112C1340.93 499.755 1341.1 499.347 1341.45 499.196C1347.21 496.775 1354.33 495.514 1354.63 495.464C1355.02 495.402 1355.37 495.652 1355.44 496.029C1355.5 496.405 1355.25 496.769 1354.87 496.838C1354.8 496.85 1347.61 498.124 1342 500.482C1341.91 500.52 1341.82 500.539 1341.73 500.539Z" fill="url(#paint28_linear_322_149)"/>
<path d="M1222.1 322.104C1209.89 326.871 1206.41 327.686 1200.13 329.662C1211.29 355.24 1237.33 425.936 1250.35 457.554C1267.55 416.628 1301.95 344.339 1313.46 322.951C1305.63 319.839 1302.68 319.595 1295.69 316.873C1285.57 319.313 1241.63 325.591 1222.1 322.104Z" fill="#606ABF"/>
<path d="M1250.35 454.996C1249.58 454.996 1248.96 454.375 1248.96 453.603C1248.96 403.857 1255.34 355.88 1255.41 355.404C1255.52 354.639 1256.23 354.105 1256.98 354.206C1257.74 354.306 1258.28 355.015 1258.18 355.774C1258.11 356.251 1251.75 404.052 1251.75 453.603C1251.75 454.375 1251.12 454.996 1250.35 454.996Z" fill="#4E569C"/>
<path d="M1198.26 230.842C1191.29 198.282 1187.8 186.772 1196.87 165.497C1205.94 144.221 1209.66 149.916 1234.07 153.404C1258.48 156.891 1288.01 149.452 1302.67 164.098C1317.32 178.75 1318.02 201.826 1307.55 237.026C1284.53 244.327 1242.21 250.141 1198.26 230.842Z" fill="#42363A"/>
<path d="M1318.25 231.839C1316.48 222.236 1309.18 219.213 1299.64 228.747C1291.73 216.189 1287.55 204.692 1283.83 194.864C1280.11 185.035 1248.02 183.636 1212.68 187.82C1204.74 188.761 1195.87 206.129 1197.91 227.724C1194.6 226.275 1191.81 227.323 1189.66 231.858C1186.77 237.973 1191.23 257.342 1202.03 256.721C1205.34 273.412 1211.81 291.708 1227.27 301.756C1226.99 312.049 1225.72 318.485 1222.1 322.104C1232.22 338.5 1247.36 347.218 1257.23 352.449C1272.67 343.38 1289.76 329.079 1295.69 316.873C1289.92 314.439 1285.87 303.927 1286.45 293.559C1295.58 284.432 1303.33 264.361 1304.41 253.391C1316.85 253.391 1320.1 241.931 1318.25 231.839Z" fill="url(#paint29_linear_322_149)"/>
<path d="M1240.31 260.855C1237.45 260.855 1235.16 259.857 1233.81 257.913C1232.25 255.674 1232.36 252.663 1234.07 250.599C1237.1 246.955 1241.04 241.956 1241.08 241.906C1241.41 241.48 1242.03 241.411 1242.45 241.743C1242.87 242.075 1242.95 242.69 1242.62 243.117C1242.58 243.167 1238.62 248.185 1235.58 251.848C1234.44 253.221 1234.37 255.297 1235.41 256.797C1237.02 259.111 1240.69 259.55 1245.22 257.957C1245.74 257.781 1246.29 258.045 1246.47 258.559C1246.65 259.067 1246.38 259.625 1245.87 259.807C1243.88 260.51 1241.99 260.855 1240.31 260.855Z" fill="url(#paint30_linear_322_149)"/>
<path d="M1257.19 271.467C1255.57 275.758 1251.05 278.938 1246.73 279.991C1241.79 281.202 1236.77 279.81 1232.83 276.68C1237.31 277.37 1241.4 278.323 1245.95 277.319C1250.09 276.404 1253.95 274.164 1257.19 271.467Z" fill="url(#paint31_linear_322_149)"/>
<path d="M1218.07 238.124C1218.21 240.583 1219.93 242.483 1221.92 242.37C1223.91 242.257 1225.4 240.169 1225.26 237.71C1225.12 235.251 1223.39 233.351 1221.4 233.464C1219.42 233.577 1217.92 235.665 1218.07 238.124Z" fill="#42363A"/>
<path d="M1261.12 237.428C1261.27 239.886 1262.99 241.787 1264.98 241.674C1266.96 241.561 1268.46 239.472 1268.32 237.014C1268.17 234.555 1266.45 232.654 1264.46 232.767C1262.48 232.88 1260.99 234.963 1261.12 237.428Z" fill="#42363A"/>
<path d="M1227.06 231.205C1225.26 231.042 1223.47 230.716 1221.66 230.672C1219.85 230.597 1218.13 230.823 1216.34 231.004C1216.22 230.71 1217.99 229.731 1218.17 229.65C1219.31 229.135 1220.51 228.978 1221.74 229.004C1223.65 229.148 1225.71 229.788 1227.06 231.205Z" fill="url(#paint32_linear_322_149)"/>
<path d="M1230.42 224.952C1228.82 227.536 1225.21 225.285 1221.29 225.209C1217.37 225.134 1213.69 227.467 1212.35 226.075C1211.01 224.682 1212.94 219.828 1220.89 219.972C1227.21 220.091 1232.84 221.013 1230.42 224.952Z" fill="#42363A"/>
<path d="M1258.41 230.434C1259.82 229.079 1261.91 228.527 1263.82 228.471C1265.06 228.502 1266.24 228.715 1267.36 229.273C1267.54 229.361 1269.26 230.415 1269.12 230.71C1267.34 230.459 1265.64 230.152 1263.82 230.145C1262.02 230.101 1260.22 230.352 1258.41 230.434Z" fill="url(#paint33_linear_322_149)"/>
<path d="M1255.34 224.042C1256.81 226.696 1260.53 224.601 1264.44 224.707C1268.36 224.808 1271.94 227.298 1273.34 225.968C1274.74 224.638 1273.03 219.696 1265.06 219.495C1258.75 219.326 1253.09 220.003 1255.34 224.042Z" fill="#42363A"/>
<path d="M1302.94 236.957C1303.88 231.55 1312.65 229.23 1313.45 233.689C1314.64 240.319 1307.81 248.774 1305.02 245.983C1305.9 242.841 1304.47 238.488 1302.94 236.957Z" fill="url(#paint34_linear_322_149)"/>
<path d="M1227.27 301.756C1237.95 309.697 1269.08 312.796 1286.45 293.559C1280.34 305.714 1251.99 326.488 1227.27 301.756Z" fill="url(#paint35_linear_322_149)"/>
<path d="M1198.73 234.737C1195.85 231.858 1193.72 237.014 1194.89 242.759C1195.71 246.767 1197.33 249.332 1200.99 250.844C1199.43 245.023 1198.73 237.352 1198.73 234.737Z" fill="url(#paint36_linear_322_149)"/>
<path d="M908.821 442.708C912.022 429.412 930.242 433.298 934.446 440.306C938.65 433.298 956.864 429.412 960.071 442.708C963.674 457.661 947.658 469.888 934.446 476.716C921.234 469.888 905.218 457.667 908.821 442.708Z" fill="url(#paint37_linear_322_149)"/>
<path d="M933.041 462.928C933.047 462.928 933.053 462.928 933.053 462.928C933.437 462.922 933.779 462.67 933.893 462.304L937.851 449.999L940.95 455.728C941.106 456.016 941.412 456.202 941.742 456.202H956.84C957.338 456.202 957.741 455.8 957.741 455.301C957.741 454.803 957.338 454.4 956.84 454.4H942.283L938.433 447.284C938.259 446.966 937.917 446.786 937.557 446.816C937.196 446.846 936.89 447.092 936.782 447.434L932.992 459.217L929.077 448.209C928.951 447.849 928.609 447.608 928.23 447.608C928.224 447.608 928.218 447.608 928.212 447.608C927.828 447.614 927.486 447.867 927.372 448.239L924.567 457.121H913.517C913.019 457.121 912.616 457.523 912.616 458.022C912.616 458.52 913.019 458.923 913.517 458.923H925.222C925.612 458.923 925.96 458.67 926.08 458.292L928.272 451.344L932.176 462.328C932.32 462.688 932.662 462.928 933.041 462.928Z" fill="#FCF4E6"/>
<path d="M1357.52 249.825C1360.72 236.529 1378.94 240.415 1383.14 247.423C1387.34 240.415 1405.56 236.529 1408.77 249.825C1412.37 264.779 1396.35 277.005 1383.14 283.834C1369.93 277.005 1353.91 264.779 1357.52 249.825Z" fill="url(#paint38_linear_322_149)"/>
<path d="M1381.74 270.039C1381.75 270.039 1381.75 270.039 1381.75 270.039C1382.14 270.033 1382.48 269.781 1382.59 269.415L1386.55 257.11L1389.65 262.839C1389.81 263.127 1390.11 263.313 1390.44 263.313H1405.54C1406.04 263.313 1406.44 262.911 1406.44 262.413C1406.44 261.914 1406.04 261.512 1405.54 261.512H1390.98L1387.13 254.396C1386.96 254.077 1386.62 253.897 1386.26 253.927C1385.9 253.957 1385.59 254.203 1385.48 254.546L1381.69 266.328L1377.78 255.32C1377.65 254.96 1377.31 254.72 1376.93 254.72C1376.92 254.72 1376.92 254.72 1376.91 254.72C1376.53 254.726 1376.19 254.978 1376.07 255.35L1373.27 264.232H1362.22C1361.72 264.232 1361.32 264.635 1361.32 265.133C1361.32 265.632 1361.72 266.034 1362.22 266.034H1373.92C1374.31 266.034 1374.66 265.782 1374.78 265.403L1376.97 258.455L1380.88 269.439C1381.02 269.799 1381.36 270.039 1381.74 270.039Z" fill="#FCF4E6"/>
<path d="M1405.09 592.212C1408.79 592.212 1434.61 634.249 1405.09 634.249C1375.56 634.249 1401.38 592.212 1405.09 592.212Z" fill="#06FF79"/>
<path d="M1398.18 616.083H1403.89V610.378C1403.89 609.633 1404.49 609.026 1405.24 609.026C1405.98 609.026 1406.59 609.633 1406.59 610.378V616.083H1412.29C1413.04 616.083 1413.64 616.689 1413.64 617.434C1413.64 618.179 1413.04 618.785 1412.29 618.785H1406.59V624.49C1406.59 625.235 1405.98 625.842 1405.24 625.842C1404.49 625.842 1403.89 625.235 1403.89 624.49V618.785H1398.18C1397.44 618.785 1396.83 618.179 1396.83 617.434C1396.83 616.689 1397.44 616.083 1398.18 616.083Z" fill="white"/>
<path d="M835.855 569C838.468 569 856.664 598.625 835.855 598.625C815.047 598.625 833.249 569 835.855 569Z" fill="#8FB4E6"/>
<path d="M830.991 585.827H835.015V581.804C835.015 581.275 835.441 580.849 835.97 580.849C836.498 580.849 836.918 581.275 836.918 581.804V585.827H840.942C841.47 585.827 841.897 586.254 841.897 586.782C841.897 587.31 841.47 587.737 840.942 587.737H836.918V591.76C836.918 592.289 836.492 592.709 835.97 592.709C835.441 592.709 835.015 592.283 835.015 591.76V587.737H830.991C830.463 587.737 830.036 587.31 830.036 586.782C830.036 586.254 830.463 585.827 830.991 585.827Z" fill="#FCF4E6"/>
<path d="M780.834 674.221C772.947 674.221 766.554 667.827 766.554 659.94C766.554 652.053 772.947 645.659 780.834 645.659C788.721 645.659 795.115 652.053 795.115 659.94C795.115 667.827 788.721 674.221 780.834 674.221Z" fill="#06FF79"/>
<path d="M773.868 658.613H779.688V652.794C779.688 652.283 780.102 651.869 780.606 651.869H781.183C781.693 651.869 782.108 652.283 782.108 652.794V658.613H787.927C788.437 658.613 788.852 659.027 788.852 659.532V660.108C788.852 660.618 788.437 661.027 787.927 661.027H782.108V666.846C782.108 667.357 781.693 667.765 781.183 667.765H780.606C780.096 667.765 779.688 667.351 779.688 666.846V661.027H773.868C773.358 661.027 772.95 660.612 772.95 660.108V659.532C772.944 659.021 773.358 658.613 773.868 658.613Z" fill="white"/>
<path d="M1148.09 321.183C1138.65 321.183 1131 313.531 1131 304.091C1131 294.652 1138.65 287 1148.09 287C1157.53 287 1165.18 294.652 1165.18 304.091C1165.18 313.531 1157.53 321.183 1148.09 321.183Z" fill="#06FF79"/>
<path d="M1139.76 302.5H1146.72V295.54C1146.72 294.933 1147.21 294.435 1147.82 294.435H1148.51C1149.12 294.435 1149.62 294.927 1149.62 295.54V302.5H1156.58C1157.18 302.5 1157.68 302.992 1157.68 303.605V304.296C1157.68 304.902 1157.19 305.401 1156.58 305.401H1149.62V312.361C1149.62 312.967 1149.12 313.466 1148.51 313.466H1147.82C1147.21 313.466 1146.72 312.973 1146.72 312.361V305.401H1139.76C1139.15 305.401 1138.65 304.908 1138.65 304.296V303.605C1138.65 302.992 1139.14 302.5 1139.76 302.5Z" fill="white"/>
<defs>
<linearGradient id="paint0_linear_322_149" x1="724.19" y1="0" x2="724.19" y2="1133.5" gradientUnits="userSpaceOnUse">
<stop stop-color="#E5F0FE"/>
<stop offset="1" stop-color="#85BAFF"/>
</linearGradient>
<linearGradient id="paint1_linear_322_149" x1="1246.22" y1="1553.09" x2="1756.91" y2="56.6684" gradientUnits="userSpaceOnUse">
<stop stop-color="#79DFFF"/>
<stop offset="1" stop-color="#4F32FF"/>
</linearGradient>
<linearGradient id="paint2_linear_322_149" x1="-37.0926" y1="-5.4732e-05" x2="-227.531" y2="1545.38" gradientUnits="userSpaceOnUse">
<stop stop-color="#8286FF"/>
<stop offset="1" stop-color="#02C2FF"/>
</linearGradient>
<linearGradient id="paint3_linear_322_149" x1="-37.0926" y1="-5.4732e-05" x2="-227.531" y2="1545.38" gradientUnits="userSpaceOnUse">
<stop stop-color="#8286FF"/>
<stop offset="1" stop-color="#02C2FF"/>
</linearGradient>
<linearGradient id="paint4_linear_322_149" x1="724.19" y1="0" x2="724.19" y2="779" gradientUnits="userSpaceOnUse">
<stop stop-color="#DB4274"/>
<stop offset="1" stop-color="#880E36"/>
</linearGradient>
<linearGradient id="paint5_linear_322_149" x1="724.19" y1="0" x2="724.19" y2="779" gradientUnits="userSpaceOnUse">
<stop stop-color="#FFC6A4"/>
<stop offset="1" stop-color="#FF9768"/>
</linearGradient>
<linearGradient id="paint6_linear_322_149" x1="724.19" y1="0" x2="724.19" y2="779" gradientUnits="userSpaceOnUse">
<stop stop-color="#FFC6A4"/>
<stop offset="1" stop-color="#FF9768"/>
</linearGradient>
<linearGradient id="paint7_linear_322_149" x1="724.19" y1="0" x2="724.19" y2="779" gradientUnits="userSpaceOnUse">
<stop stop-color="#C77140"/>
<stop offset="1" stop-color="#C77140"/>
</linearGradient>
<linearGradient id="paint8_linear_322_149" x1="724.19" y1="0" x2="724.19" y2="779" gradientUnits="userSpaceOnUse">
<stop stop-color="#C77140"/>
<stop offset="1" stop-color="#C77140"/>
</linearGradient>
<linearGradient id="paint9_linear_322_149" x1="724.19" y1="0" x2="724.19" y2="779" gradientUnits="userSpaceOnUse">
<stop stop-color="#C77140"/>
<stop offset="1" stop-color="#C77140"/>
</linearGradient>
<linearGradient id="paint10_linear_322_149" x1="724.19" y1="0" x2="724.19" y2="779" gradientUnits="userSpaceOnUse">
<stop stop-color="#C77140"/>
<stop offset="1" stop-color="#C77140"/>
</linearGradient>
<linearGradient id="paint11_linear_322_149" x1="724.19" y1="0" x2="724.19" y2="779" gradientUnits="userSpaceOnUse">
<stop stop-color="#C77140"/>
<stop offset="1" stop-color="#C77140"/>
</linearGradient>
<linearGradient id="paint12_linear_322_149" x1="724.19" y1="0" x2="724.19" y2="779" gradientUnits="userSpaceOnUse">
<stop stop-color="#C77140"/>
<stop offset="1" stop-color="#C77140"/>
</linearGradient>
<linearGradient id="paint13_linear_322_149" x1="724.19" y1="0" x2="724.19" y2="779" gradientUnits="userSpaceOnUse">
<stop stop-color="#FFC6A4"/>
<stop offset="1" stop-color="#FF9768"/>
</linearGradient>
<linearGradient id="paint14_linear_322_149" x1="724.19" y1="0" x2="724.19" y2="779" gradientUnits="userSpaceOnUse">
<stop stop-color="#C77140"/>
<stop offset="1" stop-color="#C77140"/>
</linearGradient>
<linearGradient id="paint15_linear_322_149" x1="724.19" y1="0" x2="724.19" y2="779" gradientUnits="userSpaceOnUse">
<stop stop-color="#C77140"/>
<stop offset="1" stop-color="#C77140"/>
</linearGradient>
<linearGradient id="paint16_linear_322_149" x1="724.19" y1="0" x2="724.19" y2="779" gradientUnits="userSpaceOnUse">
<stop stop-color="#C77140"/>
<stop offset="1" stop-color="#C77140"/>
</linearGradient>
<linearGradient id="paint17_linear_322_149" x1="724.19" y1="0" x2="724.19" y2="779" gradientUnits="userSpaceOnUse">
<stop stop-color="#FFC6A4"/>
<stop offset="1" stop-color="#FF9768"/>
</linearGradient>
<linearGradient id="paint18_linear_322_149" x1="724.19" y1="0" x2="724.19" y2="779" gradientUnits="userSpaceOnUse">
<stop stop-color="#C77140"/>
<stop offset="1" stop-color="#C77140"/>
</linearGradient>
<linearGradient id="paint19_linear_322_149" x1="724.19" y1="0" x2="724.19" y2="779" gradientUnits="userSpaceOnUse">
<stop stop-color="#C77140"/>
<stop offset="1" stop-color="#C77140"/>
</linearGradient>
<linearGradient id="paint20_linear_322_149" x1="724.19" y1="0" x2="724.19" y2="779" gradientUnits="userSpaceOnUse">
<stop stop-color="#C77140"/>
<stop offset="1" stop-color="#C77140"/>
</linearGradient>
<linearGradient id="paint21_linear_322_149" x1="724.19" y1="0" x2="724.19" y2="779" gradientUnits="userSpaceOnUse">
<stop stop-color="#FFC6A6"/>
<stop offset="1" stop-color="#FF8957"/>
</linearGradient>
<linearGradient id="paint22_linear_322_149" x1="724.19" y1="0" x2="724.19" y2="779" gradientUnits="userSpaceOnUse">
<stop stop-color="#C77140"/>
<stop offset="1" stop-color="#C77140"/>
</linearGradient>
<linearGradient id="paint23_linear_322_149" x1="724.19" y1="0" x2="724.19" y2="779" gradientUnits="userSpaceOnUse">
<stop stop-color="#C77140"/>
<stop offset="1" stop-color="#C77140"/>
</linearGradient>
<linearGradient id="paint24_linear_322_149" x1="724.19" y1="0" x2="724.19" y2="779" gradientUnits="userSpaceOnUse">
<stop stop-color="#FFC6A6"/>
<stop offset="1" stop-color="#FF8957"/>
</linearGradient>
<linearGradient id="paint25_linear_322_149" x1="724.19" y1="0" x2="724.19" y2="779" gradientUnits="userSpaceOnUse">
<stop stop-color="#C77140"/>
<stop offset="1" stop-color="#C77140"/>
</linearGradient>
<linearGradient id="paint26_linear_322_149" x1="724.19" y1="0" x2="724.19" y2="779" gradientUnits="userSpaceOnUse">
<stop stop-color="#C77140"/>
<stop offset="1" stop-color="#C77140"/>
</linearGradient>
<linearGradient id="paint27_linear_322_149" x1="724.19" y1="0" x2="724.19" y2="779" gradientUnits="userSpaceOnUse">
<stop stop-color="#C77140"/>
<stop offset="1" stop-color="#C77140"/>
</linearGradient>
<linearGradient id="paint28_linear_322_149" x1="724.19" y1="0" x2="724.19" y2="779" gradientUnits="userSpaceOnUse">
<stop stop-color="#C77140"/>
<stop offset="1" stop-color="#C77140"/>
</linearGradient>
<linearGradient id="paint29_linear_322_149" x1="724.19" y1="0" x2="724.19" y2="779" gradientUnits="userSpaceOnUse">
<stop stop-color="#FFC6A6"/>
<stop offset="1" stop-color="#FF8957"/>
</linearGradient>
<linearGradient id="paint30_linear_322_149" x1="724.19" y1="0" x2="724.19" y2="779" gradientUnits="userSpaceOnUse">
<stop stop-color="#C77140"/>
<stop offset="1" stop-color="#C77140"/>
</linearGradient>
<linearGradient id="paint31_linear_322_149" x1="724.19" y1="0" x2="724.19" y2="779" gradientUnits="userSpaceOnUse">
<stop stop-color="#C77140"/>
<stop offset="1" stop-color="#C77140"/>
</linearGradient>
<linearGradient id="paint32_linear_322_149" x1="724.19" y1="0" x2="724.19" y2="779" gradientUnits="userSpaceOnUse">
<stop stop-color="#C77140"/>
<stop offset="1" stop-color="#C77140"/>
</linearGradient>
<linearGradient id="paint33_linear_322_149" x1="724.19" y1="0" x2="724.19" y2="779" gradientUnits="userSpaceOnUse">
<stop stop-color="#C77140"/>
<stop offset="1" stop-color="#C77140"/>
</linearGradient>
<linearGradient id="paint34_linear_322_149" x1="724.19" y1="0" x2="724.19" y2="779" gradientUnits="userSpaceOnUse">
<stop stop-color="#C77140"/>
<stop offset="1" stop-color="#C77140"/>
</linearGradient>
<linearGradient id="paint35_linear_322_149" x1="724.19" y1="0" x2="724.19" y2="779" gradientUnits="userSpaceOnUse">
<stop stop-color="#C77140"/>
<stop offset="1" stop-color="#C77140"/>
</linearGradient>
<linearGradient id="paint36_linear_322_149" x1="724.19" y1="0" x2="724.19" y2="779" gradientUnits="userSpaceOnUse">
<stop stop-color="#C77140"/>
<stop offset="1" stop-color="#C77140"/>
</linearGradient>
<linearGradient id="paint37_linear_322_149" x1="724.19" y1="0" x2="724.19" y2="779" gradientUnits="userSpaceOnUse">
<stop stop-color="#FF417F"/>
<stop offset="1" stop-color="#FF00E5"/>
</linearGradient>
<linearGradient id="paint38_linear_322_149" x1="724.19" y1="0" x2="724.19" y2="779" gradientUnits="userSpaceOnUse">
<stop stop-color="#FF417F"/>
<stop offset="1" stop-color="#FF00E5"/>
</linearGradient>
</defs>
</svg>
