<svg width="1440" height="723" viewBox="0 0 1440 723" fill="none" xmlns="http://www.w3.org/2000/svg">
<rect width="1440" height="723" fill="url(#paint0_linear_375_2209)"/>
<path d="M1439.53 207.588C1410.46 187.231 1323.17 182.407 1281.36 212.286C1239.54 242.164 1210.57 250.844 1136.68 250.844C1062.8 250.844 979.575 277.366 956.129 371.518C910.942 552.958 864.271 478.088 854.999 635.045C937.852 635.045 1439.52 633.49 1439.52 633.49V207.588H1439.53Z" fill="url(#paint1_linear_375_2209)"/>
<path d="M1439.97 259.986C1379.38 251.815 1314.05 269.36 1257.38 304.244C1200.71 339.127 1074.11 311.684 1032.64 373.764C991.16 435.844 898.684 508.634 913.907 635.595C932.147 635.595 947.078 635.595 964.084 635.595C952.997 543.498 1004.78 559.849 1015.43 477.508C1020.88 435.386 1073.18 395.787 1127.94 379.25C1182.7 362.712 1253.06 379.487 1304.78 340.87C1356.5 302.259 1397.65 326.741 1439.97 342.125C1439.97 306.123 1439.97 278.84 1439.97 259.986Z" fill="#758DFF"/>
<path d="M1439.97 424.778C1403.69 424.778 1334.05 438.076 1268 504.116C1201.96 570.155 1077.59 537.816 1025.14 634.311C1060.34 634.311 1099.1 633.807 1123.55 633.807C1153.78 603.583 1187.73 586.295 1220.76 579.207C1253.8 572.12 1263.14 508.564 1439.97 501.804C1439.97 470.859 1439.97 442.177 1439.97 424.778Z" fill="#758DFF"/>
<path d="M918.954 547.324C919.356 547.324 919.677 546.999 919.677 546.601V533.456H962.935V546.601C962.935 546.999 963.261 547.324 963.658 547.324C964.056 547.324 964.382 546.999 964.382 546.601V532.009H918.231V546.601C918.231 546.999 918.556 547.324 918.954 547.324Z" fill="#B32755"/>
<path d="M917.508 533.068C917.508 534.678 918.81 535.981 920.42 535.981H962.035C963.644 535.981 964.947 534.678 964.947 533.068C964.947 531.459 963.644 530.156 962.035 530.156H920.42C918.81 530.156 917.508 531.459 917.508 533.068Z" fill="#992149"/>
<path d="M904.157 593.998C904.157 598.261 907.61 601.715 911.874 601.715H974.351C978.614 601.715 982.068 598.261 982.068 593.998V551.866C982.068 547.602 978.614 544.149 974.351 544.149H911.879C907.615 544.149 904.161 547.602 904.161 551.866V593.998H904.157Z" fill="#DB4274"/>
<path d="M931.295 570.759H940.943V561.112H945.288V570.759H954.936V575.104H945.288V584.748H940.943V575.104H931.295V570.759Z" fill="#FACA6E"/>
<path d="M910.068 595.723C910.465 595.723 910.791 595.397 910.791 594.999V550.86C910.791 550.463 910.465 550.137 910.068 550.137C909.67 550.137 909.344 550.463 909.344 550.86V594.999C909.344 595.402 909.665 595.723 910.068 595.723Z" fill="#B32755"/>
<path d="M976.157 595.723C976.554 595.723 976.88 595.397 976.88 594.999V550.86C976.88 550.463 976.554 550.137 976.157 550.137C975.759 550.137 975.433 550.463 975.433 550.86V594.999C975.438 595.402 975.759 595.723 976.157 595.723Z" fill="#B32755"/>
<path opacity="0.1" d="M962.954 601.716H911.874C907.61 601.716 904.156 598.262 904.156 593.998V564.068C915.553 589.476 946.221 598.578 962.954 601.716Z" fill="#FF0000"/>
<path d="M1012.15 534.616C1009.17 545.562 1005.72 545.691 1000.83 543.167C995.941 540.642 974.519 524.891 965.771 511.909C976.598 516.498 1007.82 530.29 1012.15 534.616Z" fill="#F09865"/>
<path d="M1094.2 376.775C1107.86 381.647 1117.55 384.89 1130.7 391.923C1143.85 398.955 1143.79 417.422 1143.79 427.056C1143.79 436.69 1145.62 486.687 1145.62 506.87C1143.1 507.444 1138.86 506.376 1135.99 505.241C1130.03 522.673 1132.32 562.372 1142.41 602.276C1094.71 602.276 1031.87 602.276 1010.31 602.276C1010.31 582.094 1014.44 567.416 1014.44 544.479C1014.44 521.543 1009.4 472.465 999.765 462.831C1003.89 433.935 1004.81 405.188 1012.45 397.542C1020.1 389.896 1034.72 382.16 1045.91 377.005C1062.61 377.01 1079.01 378.936 1094.2 376.775Z" fill="#606ABF"/>
<path d="M1053.56 417.116C1053.62 417.116 1053.69 417.111 1053.75 417.097L1080.81 411.156L1083.6 397.499L1096.38 401.475L1100.56 380.143C1100.66 379.645 1100.33 379.161 1099.84 379.065C1099.34 378.965 1098.85 379.29 1098.76 379.789L1094.97 399.118L1082.2 395.147L1079.25 409.623L1053.35 415.305C1052.86 415.415 1052.55 415.904 1052.66 416.397C1052.76 416.824 1053.13 417.116 1053.56 417.116Z" fill="#4E569C"/>
<path d="M1050.68 415.587C1050.97 415.587 1051.27 415.444 1051.44 415.176C1051.72 414.754 1051.61 414.184 1051.18 413.906L1038.73 405.7L1041.52 394.395L1032.92 392.641L1041.12 381.321C1041.4 380.9 1041.28 380.33 1040.86 380.052C1040.44 379.774 1039.87 379.889 1039.59 380.311L1029.9 393.896L1039.28 395.813L1036.65 406.524L1050.18 415.444C1050.33 415.54 1050.5 415.587 1050.68 415.587Z" fill="#4E569C"/>
<path d="M1050.68 603.191C1050.73 603.191 1050.8 603.186 1050.85 603.172C1051.35 603.071 1051.67 602.592 1051.58 602.094C1041.95 553.227 1041.96 490.208 1041.96 466.486V465.427C1041.96 442.639 1054.28 413.413 1054.4 413.121C1054.6 412.656 1054.38 412.115 1053.92 411.918C1053.45 411.717 1052.91 411.937 1052.72 412.402C1052.59 412.699 1040.13 442.266 1040.13 465.427V466.486C1040.13 490.256 1040.12 553.404 1049.78 602.449C1049.86 602.889 1050.25 603.191 1050.68 603.191Z" fill="#4E569C"/>
<path d="M1102.51 494.941C1103.02 494.941 1103.43 494.529 1103.43 494.026C1103.43 469.102 1104.79 424.325 1104.8 423.875C1104.82 423.367 1104.42 422.946 1103.91 422.931C1103.39 422.927 1102.98 423.315 1102.97 423.822C1102.96 424.273 1101.59 469.078 1101.59 494.031C1101.59 494.529 1102 494.941 1102.51 494.941Z" fill="#4E569C"/>
<path d="M1005.27 466.04C1005.69 466.04 1006.08 465.743 1006.16 465.312C1010.69 443.592 1019.81 415.233 1019.9 414.95C1020.05 414.466 1019.79 413.954 1019.31 413.796C1018.82 413.643 1018.31 413.906 1018.15 414.39C1018.06 414.672 1008.91 443.128 1004.37 464.939C1004.26 465.437 1004.58 465.921 1005.08 466.021C1005.14 466.036 1005.21 466.04 1005.27 466.04Z" fill="#4E569C"/>
<path d="M1094.37 329.278C1096.1 313.556 1106.48 281.809 1084.19 271.965C1061.89 262.121 1046.56 264.43 1031.98 271.127C1017.4 277.824 1010.82 294.226 1023.83 315.711C1030.24 321.038 1090.98 373.915 1105.42 347.898C1107.73 343.726 1109.7 327.822 1094.37 329.278Z" fill="#42363A"/>
<path d="M1023.83 315.706C1022.63 298.705 1037.65 288.372 1047.34 288.372C1060.9 288.372 1067.54 299.697 1070.72 303.663C1073.89 307.63 1081.41 325.062 1087.98 318.494C1092.95 311.079 1097.27 312.224 1099.03 317.302C1100.51 321.584 1101.63 339.678 1090.16 334.921C1089.1 339.807 1087.72 346.892 1082.91 353.11C1082.81 360.176 1080.61 368.603 1084.62 371.549C1088.44 374.351 1091.16 375.103 1094.2 376.77C1080.99 389.982 1064.05 402.279 1053.56 412.761C1050.07 405.494 1047.34 397.005 1045.91 377.005C1047.13 376.028 1046.09 368.032 1044.12 364.741C1026.67 351.98 1024.77 329.048 1023.83 315.706Z" fill="url(#paint2_linear_375_2209)"/>
<path d="M1089.1 323.774C1091.19 320.655 1093.08 318.854 1094.84 321.048C1096.61 323.247 1095.9 333.791 1089.78 328.651C1090.95 327.707 1090.95 324.636 1089.1 323.774Z" fill="#C77140"/>
<path d="M1082.91 353.115C1074.07 369.719 1056.18 375.376 1044.12 364.746C1050.68 368.033 1067.7 370.481 1082.91 353.115Z" fill="#C77140"/>
<path d="M1045.82 338.408C1047.03 338.408 1048.46 338.164 1050.13 337.57C1050.46 337.45 1050.63 337.086 1050.51 336.751C1050.39 336.416 1050.03 336.238 1049.69 336.363C1045.68 337.791 1043.33 336.981 1042.54 335.85C1042.03 335.132 1042.1 334.226 1042.7 333.489C1044.72 331.036 1047.85 325.666 1047.98 325.441C1048.16 325.134 1048.06 324.741 1047.75 324.564C1047.44 324.382 1047.05 324.487 1046.87 324.794C1046.84 324.852 1043.66 330.298 1041.71 332.674C1040.74 333.858 1040.65 335.395 1041.48 336.593C1042.2 337.599 1043.63 338.408 1045.82 338.408Z" fill="#C77140"/>
<path d="M1060.61 343.822C1058.55 345.556 1056.04 347.075 1053.39 347.673C1051.9 348.009 1050.46 348.09 1048.94 348.009C1047.47 347.927 1046.06 347.539 1044.62 347.324C1047.21 349.369 1050.52 350.275 1053.77 349.46C1056.6 348.751 1059.56 346.648 1060.61 343.822Z" fill="#C77140"/>
<path d="M1034.12 323.309C1034.1 324.962 1035.16 326.313 1036.49 326.332C1037.82 326.351 1038.92 325.029 1038.94 323.376C1038.97 321.728 1037.91 320.373 1036.57 320.353C1035.24 320.339 1034.14 321.661 1034.12 323.309Z" fill="#42363A"/>
<path d="M1058.98 322.557C1058.96 324.21 1060.02 325.561 1061.35 325.58C1062.69 325.599 1063.79 324.277 1063.81 322.624C1063.83 320.976 1062.77 319.625 1061.44 319.601C1060.11 319.587 1059.01 320.909 1058.98 322.557Z" fill="#42363A"/>
<path d="M1040.03 319.209C1039.14 318.279 1037.79 317.867 1036.54 317.776C1035.72 317.767 1034.94 317.872 1034.18 318.212C1034.06 318.265 1032.9 318.912 1032.99 319.108C1034.16 318.988 1035.28 318.83 1036.48 318.878C1037.67 318.897 1038.85 319.108 1040.03 319.209Z" fill="#C77140"/>
<path d="M1042.22 315.089C1041.18 316.794 1038.8 315.324 1036.22 315.29C1033.64 315.252 1031.23 316.794 1030.34 315.884C1029.46 314.974 1030.71 311.774 1035.94 311.846C1040.1 311.903 1043.8 312.493 1042.22 315.089Z" fill="#42363A"/>
<path d="M1057.52 318.112C1058.71 318.054 1059.9 317.882 1061.08 317.906C1062.27 317.906 1063.39 318.097 1064.56 318.26C1064.66 318.068 1063.52 317.379 1063.4 317.321C1062.66 316.957 1061.88 316.818 1061.07 316.804C1059.82 316.847 1058.45 317.216 1057.52 318.112Z" fill="#C77140"/>
<path d="M1055.48 313.915C1056.45 315.654 1058.89 314.27 1061.47 314.322C1064.05 314.38 1066.4 316.004 1067.32 315.122C1068.23 314.246 1067.1 311.002 1061.86 310.892C1057.71 310.811 1053.99 311.266 1055.48 313.915Z" fill="#42363A"/>
<path d="M1098.22 295.706C1084.62 285.929 1041.46 257.44 1016.86 293.244C1014.59 283.179 1014.9 274.006 1014.9 267.275C1033.25 257.795 1067.8 245.258 1113.97 285.316C1107.09 292.2 1104.18 293.867 1098.22 295.706Z" fill="#FCF4E6"/>
<path d="M1108.11 289.766C1108.74 289.766 1109.36 289.508 1109.81 289.005C1110.66 288.061 1110.59 286.614 1109.64 285.766C1109.13 285.306 1096.96 274.456 1079.29 267.213C1055.62 257.512 1033.57 259.179 1015.51 272.037C1014.48 272.77 1014.24 274.202 1014.97 275.237C1015.71 276.267 1017.14 276.511 1018.17 275.773C1058.72 246.901 1106.1 288.751 1106.58 289.177C1107.01 289.575 1107.56 289.766 1108.11 289.766Z" fill="#606ABF"/>
<path d="M1021.78 489.523L1014.44 544.479L916.281 482.438L932.334 428.886L1021.78 489.523Z" fill="#424985"/>
<path d="M1017.87 491.272L934.399 434.682L920.559 480.838L1011.58 538.366L1017.87 491.272Z" fill="#FCF4E6"/>
<path d="M929.354 467.588C929.555 467.588 929.742 467.454 929.794 467.252L935.069 448.048C935.121 447.866 935.05 447.669 934.896 447.554L928.333 442.764C928.127 442.615 927.84 442.658 927.691 442.864C927.543 443.07 927.586 443.358 927.792 443.506L934.101 448.11L929.028 466.577L921.584 464.685C921.344 464.623 921.09 464.771 921.028 465.015C920.966 465.26 921.114 465.509 921.359 465.571L929.239 467.573C929.277 467.583 929.315 467.588 929.354 467.588Z" fill="#88ADD9"/>
<path d="M934.628 481.408C934.825 481.408 935.007 481.279 935.069 481.083L943.098 454.405C943.17 454.16 943.036 453.906 942.791 453.835C942.552 453.758 942.293 453.897 942.221 454.141L934.192 480.819C934.121 481.063 934.255 481.317 934.499 481.389C934.537 481.404 934.585 481.408 934.628 481.408Z" fill="#B39AA2"/>
<path d="M939.481 484.618C939.683 484.618 939.865 484.489 939.922 484.287L948.847 453.116C948.919 452.872 948.775 452.618 948.531 452.551C948.291 452.479 948.032 452.623 947.965 452.867L939.041 484.038C938.969 484.283 939.113 484.537 939.357 484.604C939.395 484.613 939.438 484.618 939.481 484.618Z" fill="#B39AA2"/>
<path d="M944.607 487.143C944.808 487.143 944.99 487.013 945.048 486.812L953.915 455.933C953.987 455.689 953.843 455.435 953.599 455.368C953.355 455.296 953.101 455.44 953.029 455.684L944.162 486.563C944.09 486.807 944.234 487.061 944.478 487.128C944.521 487.138 944.564 487.143 944.607 487.143Z" fill="#B39AA2"/>
<path d="M949.134 490.074C949.336 490.074 949.518 489.94 949.575 489.739L958.246 459.128C958.313 458.884 958.174 458.63 957.93 458.563C957.69 458.496 957.431 458.634 957.364 458.879L948.694 489.49C948.627 489.734 948.766 489.988 949.01 490.055C949.053 490.069 949.091 490.074 949.134 490.074Z" fill="#B39AA2"/>
<path d="M954.044 493.107C954.245 493.107 954.428 492.977 954.485 492.776L963.28 462.424C963.352 462.179 963.208 461.925 962.969 461.854C962.725 461.782 962.471 461.926 962.399 462.165L953.604 492.517C953.532 492.762 953.675 493.015 953.915 493.087C953.958 493.097 954.001 493.107 954.044 493.107Z" fill="#B39AA2"/>
<path d="M1036.82 467.128L1037.01 464.383L970.96 459.947L968.345 460.996L970.773 462.692L1036.82 467.128Z" fill="#88ADD9"/>
<path d="M1102.51 494.021C1092.42 497.437 1051.6 495.573 1037.83 489.523C1024.07 483.473 1019.33 473.537 1013.06 467.267C1006.79 460.996 988.751 455.952 984.852 455.952C980.952 455.952 983.932 459.391 988.291 460.996C992.047 462.38 997.676 465.087 1001.94 467.645C991.621 467.645 984.967 467.76 985.312 472.766C983.803 474.275 984.507 476.704 985.887 477.446C984.828 478.505 985.312 481.207 986.461 482.433C986.461 486.678 990.414 486.611 993.628 487.899C996.838 489.188 1001.65 492.546 1004.81 495.712C1007.98 498.879 1010.09 507.32 1034.63 509.384C1059.17 511.449 1110.93 536.369 1121.02 532.699C1131.1 529.03 1136 516.905 1136 505.231C1126.51 501.207 1113.98 496.623 1102.51 494.021Z" fill="url(#paint3_linear_375_2209)"/>
<path d="M1002.9 473.226C1003.1 473.226 1003.29 473.083 1003.34 472.877C1003.4 472.632 1003.25 472.383 1003 472.321C992.828 469.873 985.475 472.23 985.168 472.33C984.929 472.407 984.799 472.671 984.876 472.91C984.957 473.15 985.216 473.284 985.456 473.202C985.527 473.178 992.876 470.831 1002.79 473.212C1002.83 473.226 1002.86 473.226 1002.9 473.226Z" fill="#C77140"/>
<path d="M1001.59 479.114C1001.8 479.114 1001.99 478.97 1002.04 478.759C1002.1 478.51 1001.94 478.266 1001.69 478.208C994.145 476.455 985.934 476.992 985.848 476.992C985.594 477.011 985.402 477.226 985.422 477.48C985.441 477.734 985.661 477.931 985.91 477.907C985.992 477.897 994.073 477.375 1001.48 479.099C1001.53 479.109 1001.56 479.114 1001.59 479.114Z" fill="#C77140"/>
<path d="M1000.83 484.618C1001.05 484.618 1001.24 484.464 1001.28 484.244C1001.33 483.995 1001.17 483.755 1000.92 483.708C992.493 482.112 986.529 481.978 986.472 481.978C986.467 481.978 986.467 481.978 986.462 481.978C986.213 481.978 986.007 482.179 986.002 482.428C985.997 482.682 986.199 482.888 986.452 482.898C986.51 482.898 992.402 483.032 1000.75 484.608C1000.78 484.618 1000.8 484.618 1000.83 484.618Z" fill="#C77140"/>
<path d="M948.248 502.644C950.011 498.654 956.191 489.82 958.94 491.272C960.009 491.832 959.573 494.251 958.021 497.437C957.422 498.213 962.624 490.888 965.202 492.968C967.305 494.663 965.173 496.948 963.295 500.829C965.896 498.232 968.306 494.764 970.902 496.374C972.622 497.437 970.581 501.442 969.077 504.268C973.695 499.65 974.835 503.957 973.154 508.086C971.472 512.216 968.794 517.188 964.057 520.244C959.314 523.301 958.552 520.014 954.346 516.805C949.973 513.456 944.492 509.389 948.248 502.644Z" fill="#F09865"/>
<path d="M951.358 507.392C951.497 507.392 951.636 507.329 951.727 507.21C955.061 502.73 958.371 497.739 958.405 497.691C958.544 497.48 958.486 497.193 958.275 497.054C958.065 496.915 957.782 496.972 957.638 497.183C957.605 497.231 954.309 502.203 950.989 506.659C950.836 506.86 950.879 507.147 951.085 507.301C951.166 507.363 951.262 507.392 951.358 507.392Z" fill="#C77140"/>
<path d="M956.647 511.147C956.805 511.147 956.953 511.066 957.039 510.922C959.071 507.535 963.626 501.154 963.669 501.092C963.818 500.886 963.77 500.599 963.564 500.45C963.358 500.302 963.071 500.35 962.922 500.556C962.874 500.618 958.299 507.032 956.249 510.448C956.12 510.663 956.187 510.946 956.407 511.075C956.484 511.128 956.565 511.147 956.647 511.147Z" fill="#C77140"/>
<path d="M962.457 513.974C962.596 513.974 962.73 513.911 962.821 513.791C965.245 510.611 969.418 504.584 969.461 504.527C969.605 504.321 969.552 504.033 969.346 503.89C969.14 503.746 968.852 503.794 968.709 504.005C968.666 504.067 964.508 510.074 962.093 513.236C961.94 513.437 961.978 513.724 962.179 513.878C962.261 513.945 962.357 513.974 962.457 513.974Z" fill="#C77140"/>
<path d="M1195.8 317.216C1172.36 324.675 1156.2 328.047 1150.69 339.951C1145.74 350.658 1131.34 401.001 1127.61 421.465C1118.08 473.581 1101.99 502.505 1157.93 502.505C1157.93 537.136 1155.84 562.649 1148.38 607.402C1183.55 607.402 1295.96 607.402 1326.32 607.402C1322.59 582.894 1319.93 533.346 1319.93 508.307C1348.17 512.393 1362.9 505.289 1360.24 469.59C1357.1 427.497 1353.73 339.271 1339.35 332.344C1324.96 325.417 1295.92 316.732 1282.35 312.095C1262.39 323.429 1230.96 319.525 1195.8 317.216Z" fill="#FCF4E6"/>
<path d="M1230.08 417.379C1229.73 417.379 1229.39 417.207 1229.18 416.896C1222.58 406.749 1213.38 398.342 1202.72 388.603C1197.46 383.803 1192.03 378.84 1186.4 373.207C1186.19 373.006 1186.08 372.737 1186.08 372.455C1186.08 372.172 1186.19 371.899 1186.4 371.703C1188.36 369.743 1189.7 368.172 1191.4 366.179C1193.75 363.434 1196.62 360.071 1202.39 354.227C1200.98 354.102 1199.45 353.896 1197.68 353.662C1193.15 353.049 1186.94 352.215 1177.68 352.215C1177.37 352.215 1177.07 352.076 1176.86 351.837C1176.66 351.592 1176.58 351.276 1176.63 350.965C1179.3 336.057 1188.11 318.989 1188.2 318.816C1188.47 318.294 1189.12 318.088 1189.64 318.361C1190.16 318.634 1190.37 319.276 1190.09 319.798C1190.01 319.961 1181.83 335.813 1178.97 350.093C1187.67 350.165 1193.59 350.965 1197.97 351.554C1200.73 351.923 1202.9 352.22 1204.84 352.22C1205.27 352.22 1205.66 352.479 1205.82 352.876C1205.99 353.274 1205.89 353.734 1205.59 354.035C1198.73 360.895 1195.57 364.594 1193.03 367.568C1191.57 369.264 1190.3 370.759 1188.66 372.455C1193.99 377.748 1199.16 382.472 1204.16 387.042C1214.93 396.881 1224.23 405.375 1230.98 415.746C1231.3 416.239 1231.16 416.9 1230.67 417.221C1230.48 417.322 1230.28 417.379 1230.08 417.379Z" fill="#DBCDB4"/>
<path d="M1244.82 455.56C1244.77 455.56 1244.72 455.555 1244.67 455.55C1236.63 454.472 1207.66 448.484 1206.44 448.23C1205.86 448.111 1205.49 447.55 1205.61 446.97C1205.73 446.396 1206.29 446.017 1206.87 446.142C1207.17 446.204 1236.99 452.369 1244.96 453.433C1245.54 453.509 1245.95 454.046 1245.87 454.63C1245.8 455.172 1245.34 455.56 1244.82 455.56Z" fill="#DBCDB4"/>
<path d="M1185.01 504.044C1176.09 504.044 1166.87 503.914 1157.89 503.569C1157.3 503.545 1156.84 503.052 1156.86 502.463C1156.89 501.873 1157.38 501.404 1157.97 501.438C1183.94 502.439 1212.05 501.615 1228.85 501.121C1233.57 500.982 1237.17 500.877 1239.48 500.848V490.051C1239.48 489.461 1239.96 488.987 1240.55 488.987C1241.14 488.987 1241.61 489.466 1241.61 490.051V501.902C1241.61 502.491 1241.13 502.966 1240.55 502.966C1238.38 502.966 1234.41 503.081 1228.91 503.244C1217.89 503.574 1201.99 504.044 1185.01 504.044Z" fill="#DBCDB4"/>
<path d="M1319.93 509.371C1319.89 509.371 1319.84 509.371 1319.8 509.361C1319.39 509.308 1278.66 504.058 1240.37 497.327C1239.79 497.227 1239.4 496.671 1239.5 496.096C1239.6 495.517 1240.15 495.129 1240.73 495.229C1278.98 501.945 1319.66 507.191 1320.06 507.244C1320.65 507.32 1321.06 507.852 1320.98 508.436C1320.92 508.978 1320.46 509.371 1319.93 509.371Z" fill="#DBCDB4"/>
<path d="M1164.21 407.755C1164.17 407.755 1164.12 407.755 1164.08 407.746C1163.49 407.674 1163.08 407.137 1163.15 406.553C1164.93 392.45 1169.4 365.614 1169.44 365.346C1169.54 364.766 1170.09 364.373 1170.67 364.469C1171.25 364.565 1171.64 365.116 1171.55 365.695C1171.5 365.964 1167.04 392.761 1165.27 406.816C1165.2 407.358 1164.74 407.755 1164.21 407.755Z" fill="#DBCDB4"/>
<path d="M1314.96 433.183C1314.37 433.183 1313.89 432.704 1313.89 432.12C1313.89 405.791 1313.54 365.935 1313.54 365.533C1313.54 364.943 1314.01 364.464 1314.59 364.459C1314.6 364.459 1314.6 364.459 1314.6 364.459C1315.19 364.459 1315.66 364.929 1315.67 365.518C1315.67 365.916 1316.02 405.782 1316.02 432.125C1316.03 432.709 1315.55 433.183 1314.96 433.183Z" fill="#DBCDB4"/>
<path d="M1234.16 453.725C1233.57 453.725 1233.09 453.246 1233.09 452.661V414.898C1233.09 414.309 1233.57 413.835 1234.16 413.835C1234.75 413.835 1235.22 414.314 1235.22 414.898V452.661C1235.23 453.246 1234.75 453.725 1234.16 453.725Z" fill="#DBCDB4"/>
<path d="M1239.07 608.461C1238.52 608.461 1238.05 608.03 1238.01 607.469C1234.97 563.21 1233.11 502.927 1233.09 502.324C1233.07 501.734 1233.53 501.246 1234.12 501.227C1234.72 501.188 1235.2 501.672 1235.22 502.257C1235.23 502.86 1237.09 563.105 1240.13 607.325C1240.17 607.91 1239.73 608.423 1239.14 608.461C1239.12 608.461 1239.1 608.461 1239.07 608.461Z" fill="#DBCDB4"/>
<path d="M1239.07 417.379C1238.86 417.379 1238.64 417.317 1238.45 417.178C1237.97 416.833 1237.86 416.168 1238.21 415.688C1253.11 395.075 1268.51 382.673 1288.49 367.674C1287.12 366.16 1286.41 364.986 1285.62 363.659C1284.12 361.154 1282.06 357.714 1273.57 349.226C1273.29 348.953 1273.19 348.555 1273.29 348.186C1273.4 347.817 1273.69 347.53 1274.07 347.439C1279.85 346.021 1284.24 345.489 1288.49 344.981C1292.26 344.526 1295.83 344.1 1300.06 343.065C1297.37 328.512 1291.82 316.081 1291.76 315.951C1291.52 315.415 1291.76 314.783 1292.3 314.543C1292.84 314.299 1293.47 314.543 1293.71 315.08C1293.76 315.209 1299.68 328.445 1302.33 343.674C1302.43 344.22 1302.09 344.752 1301.55 344.89C1296.76 346.131 1292.86 346.601 1288.74 347.099C1285.03 347.544 1281.2 348.009 1276.42 349.077C1283.98 356.776 1285.97 360.105 1287.45 362.567C1288.35 364.076 1289.07 365.274 1290.85 367.056C1291.07 367.276 1291.18 367.578 1291.16 367.885C1291.13 368.191 1290.98 368.479 1290.73 368.661C1270.43 383.87 1254.9 396.239 1239.93 416.939C1239.73 417.226 1239.4 417.379 1239.07 417.379Z" fill="#DBCDB4"/>
<path d="M1246.95 425.284C1246.95 427.459 1245.19 429.222 1243.01 429.222C1240.84 429.222 1239.08 427.459 1239.08 425.284C1239.08 423.109 1240.84 421.346 1243.01 421.346C1245.19 421.346 1246.95 423.109 1246.95 425.284Z" fill="#CCB893"/>
<path d="M1246.96 516.115C1246.96 518.29 1245.19 520.058 1243.02 520.058C1240.84 520.058 1239.08 518.295 1239.08 516.115C1239.08 513.941 1240.84 512.178 1243.02 512.178C1245.19 512.178 1246.96 513.941 1246.96 516.115Z" fill="#CCB893"/>
<path d="M1248.75 564.494C1248.75 566.669 1246.99 568.437 1244.82 568.437C1242.64 568.437 1240.87 566.674 1240.87 564.494C1240.87 562.319 1242.64 560.556 1244.82 560.556C1246.99 560.556 1248.75 562.319 1248.75 564.494Z" fill="#CCB893"/>
<path d="M1206.65 447.19C1198.48 432.272 1190.48 422.49 1181.64 416.981C1173.51 411.918 1156.42 400.909 1153.45 403.884C1149.71 407.616 1159.93 411.52 1170.05 418.802C1157.93 413.915 1146.52 408.459 1144.3 410.677C1142.08 412.9 1143.86 414.807 1145.37 416.316C1142.21 415.405 1141.03 419.425 1143.7 422.088C1141.38 424.407 1143.99 428.857 1151.58 433.187C1163.3 436.914 1195.81 444.704 1206.65 447.19Z" fill="url(#paint4_linear_375_2209)"/>
<path d="M1170.49 427.721C1170.43 427.721 1170.37 427.712 1170.31 427.688C1161.6 424.521 1145.3 416.871 1145.14 416.79C1144.87 416.665 1144.76 416.349 1144.88 416.081C1145.01 415.817 1145.32 415.702 1145.59 415.827C1145.75 415.903 1162.01 423.535 1170.67 426.687C1170.95 426.787 1171.1 427.094 1170.99 427.367C1170.91 427.587 1170.71 427.721 1170.49 427.721Z" fill="#C77140"/>
<path d="M1167.43 433.848C1167.37 433.848 1167.31 433.839 1167.24 433.815C1156.81 429.853 1143.58 422.624 1143.44 422.553C1143.19 422.414 1143.09 422.088 1143.23 421.829C1143.37 421.571 1143.7 421.475 1143.96 421.618C1144.09 421.69 1157.26 428.881 1167.62 432.818C1167.9 432.924 1168.03 433.23 1167.93 433.504C1167.85 433.719 1167.64 433.848 1167.43 433.848Z" fill="#C77140"/>
<path d="M1244.81 454.495C1258.13 456.359 1274.64 458.227 1277.58 458.227C1280.51 458.227 1308.92 435.674 1314.96 432.119C1320.99 428.569 1328.1 428.565 1313.89 444.373C1325.61 444.373 1345.37 443.377 1351.1 444.373C1353.86 444.857 1353.32 449.302 1350.83 449.7C1353.03 451.099 1352.36 453.561 1350.33 454.859C1352.7 456.622 1351.04 459.209 1349.24 461.02C1352.5 463.549 1345.11 468.876 1324.73 475.669C1311.11 480.21 1310.61 487.525 1299.96 487.525C1290.41 487.525 1280.24 484.996 1276.25 484.996C1272.25 484.996 1248.94 488.191 1240.56 490.06C1240.55 481.001 1242.55 460.488 1244.81 454.495Z" fill="url(#paint5_linear_375_2209)"/>
<path d="M1318.73 452.761C1318.47 452.761 1318.25 452.574 1318.2 452.316C1318.16 452.024 1318.36 451.75 1318.65 451.703C1330.93 449.724 1350.62 449.173 1350.81 449.168C1351.11 449.168 1351.35 449.394 1351.36 449.686C1351.37 449.983 1351.13 450.227 1350.84 450.232C1350.65 450.237 1331.02 450.788 1318.81 452.756C1318.79 452.761 1318.76 452.761 1318.73 452.761Z" fill="#C77140"/>
<path d="M1320.86 460.661C1320.62 460.661 1320.4 460.498 1320.35 460.254C1320.28 459.966 1320.45 459.679 1320.74 459.612C1330.9 457.145 1350.07 454.361 1350.26 454.333C1350.55 454.285 1350.82 454.491 1350.86 454.783C1350.9 455.075 1350.7 455.343 1350.41 455.387C1350.22 455.415 1331.11 458.189 1320.99 460.646C1320.95 460.656 1320.91 460.661 1320.86 460.661Z" fill="#C77140"/>
<path d="M1322.33 468.215C1322.09 468.215 1321.88 468.062 1321.82 467.822C1321.74 467.54 1321.91 467.243 1322.19 467.166C1330.36 464.924 1348.93 460.546 1349.11 460.503C1349.4 460.435 1349.69 460.613 1349.75 460.9C1349.82 461.188 1349.64 461.475 1349.36 461.542C1349.17 461.585 1330.63 465.964 1322.47 468.196C1322.42 468.206 1322.37 468.215 1322.33 468.215Z" fill="#C77140"/>
<path d="M1303.95 447.722C1303.74 447.722 1303.54 447.597 1303.45 447.396C1303.34 447.123 1303.47 446.812 1303.74 446.697C1308.14 444.848 1313.57 443.885 1313.8 443.846C1314.09 443.798 1314.36 443.99 1314.42 444.277C1314.46 444.565 1314.27 444.843 1313.98 444.895C1313.93 444.905 1308.44 445.877 1304.15 447.679C1304.09 447.707 1304.02 447.722 1303.95 447.722Z" fill="#C77140"/>
<path d="M1212.58 311.443C1203.26 315.084 1200.59 315.707 1195.8 317.216C1204.32 336.751 1224.21 390.744 1234.16 414.893C1247.3 383.635 1273.56 328.425 1282.35 312.09C1276.38 309.714 1274.12 309.527 1268.79 307.448C1261.06 309.311 1227.5 314.107 1212.58 311.443Z" fill="#606ABF"/>
<path d="M1234.16 412.938C1233.57 412.938 1233.09 412.464 1233.09 411.875C1233.09 373.882 1237.97 337.24 1238.02 336.876C1238.1 336.291 1238.65 335.884 1239.22 335.961C1239.8 336.037 1240.21 336.579 1240.14 337.158C1240.09 337.522 1235.23 374.03 1235.23 411.875C1235.23 412.464 1234.75 412.938 1234.16 412.938Z" fill="#4E569C"/>
<path d="M1194.38 241.742C1189.05 216.875 1186.39 208.085 1193.31 191.835C1200.24 175.586 1203.08 179.936 1221.73 182.599C1240.37 185.263 1262.92 179.581 1274.11 190.767C1285.3 201.958 1285.84 219.582 1277.85 246.466C1260.26 252.042 1227.94 256.482 1194.38 241.742Z" fill="#42363A"/>
<path d="M1286.01 242.504C1284.66 235.17 1279.09 232.861 1271.8 240.142C1265.76 230.552 1262.57 221.771 1259.73 214.264C1256.89 206.758 1232.38 205.689 1205.39 208.885C1199.33 209.603 1192.55 222.868 1194.1 239.362C1191.58 238.255 1189.45 239.055 1187.81 242.518C1185.6 247.189 1189 261.982 1197.25 261.508C1199.78 274.255 1204.72 288.229 1216.53 295.903C1216.32 303.764 1215.34 308.679 1212.58 311.443C1220.31 323.966 1231.88 330.624 1239.41 334.62C1251.21 327.693 1264.26 316.77 1268.79 307.448C1264.37 305.589 1261.28 297.561 1261.73 289.642C1268.7 282.672 1274.62 267.343 1275.45 258.964C1284.95 258.964 1287.43 250.212 1286.01 242.504Z" fill="url(#paint6_linear_375_2209)"/>
<path d="M1226.49 264.665C1224.3 264.665 1222.55 263.903 1221.52 262.418C1220.34 260.708 1220.42 258.409 1221.73 256.833C1224.04 254.049 1227.05 250.231 1227.08 250.193C1227.33 249.867 1227.8 249.815 1228.13 250.068C1228.45 250.322 1228.5 250.792 1228.25 251.118C1228.22 251.156 1225.2 254.988 1222.87 257.786C1222 258.835 1221.95 260.421 1222.75 261.566C1223.98 263.333 1226.78 263.669 1230.24 262.452C1230.64 262.318 1231.06 262.519 1231.19 262.912C1231.33 263.3 1231.12 263.726 1230.74 263.865C1229.21 264.402 1227.78 264.665 1226.49 264.665Z" fill="#C77140"/>
<path d="M1239.38 272.77C1238.15 276.047 1234.69 278.476 1231.39 279.28C1227.62 280.205 1223.79 279.141 1220.78 276.751C1224.2 277.278 1227.33 278.006 1230.79 277.24C1233.96 276.54 1236.91 274.83 1239.38 272.77Z" fill="#C77140"/>
<path d="M1209.5 247.304C1209.61 249.182 1210.93 250.634 1212.45 250.548C1213.96 250.461 1215.1 248.866 1214.99 246.988C1214.88 245.11 1213.57 243.659 1212.05 243.745C1210.53 243.831 1209.39 245.427 1209.5 247.304Z" fill="#42363A"/>
<path d="M1242.39 246.772C1242.5 248.65 1243.81 250.102 1245.33 250.016C1246.85 249.929 1247.99 248.334 1247.88 246.456C1247.77 244.578 1246.45 243.127 1244.94 243.213C1243.42 243.299 1242.28 244.89 1242.39 246.772Z" fill="#42363A"/>
<path d="M1216.37 242.02C1215 241.896 1213.63 241.647 1212.25 241.613C1210.86 241.556 1209.55 241.728 1208.18 241.867C1208.09 241.642 1209.44 240.895 1209.58 240.832C1210.45 240.44 1211.36 240.32 1212.31 240.339C1213.76 240.449 1215.34 240.938 1216.37 242.02Z" fill="#C77140"/>
<path d="M1218.93 237.245C1217.72 239.218 1214.96 237.498 1211.96 237.441C1208.97 237.383 1206.16 239.166 1205.14 238.102C1204.11 237.039 1205.58 233.331 1211.66 233.441C1216.48 233.532 1220.78 234.236 1218.93 237.245Z" fill="#42363A"/>
<path d="M1240.31 241.431C1241.39 240.396 1242.99 239.975 1244.44 239.932C1245.39 239.956 1246.3 240.119 1247.15 240.545C1247.28 240.612 1248.6 241.417 1248.49 241.642C1247.13 241.45 1245.84 241.216 1244.45 241.211C1243.07 241.177 1241.69 241.369 1240.31 241.431Z" fill="#C77140"/>
<path d="M1237.96 236.55C1239.09 238.576 1241.93 236.976 1244.92 237.058C1247.91 237.134 1250.65 239.036 1251.71 238.021C1252.78 237.005 1251.48 233.23 1245.39 233.077C1240.58 232.947 1236.25 233.465 1237.96 236.55Z" fill="#42363A"/>
<path d="M1274.32 246.413C1275.04 242.284 1281.74 240.511 1282.35 243.918C1283.26 248.981 1278.04 255.439 1275.91 253.307C1276.58 250.907 1275.49 247.582 1274.32 246.413Z" fill="#C77140"/>
<path d="M1216.53 295.903C1224.69 301.968 1248.46 304.334 1261.73 289.642C1257.06 298.926 1235.41 314.792 1216.53 295.903Z" fill="#C77140"/>
<path d="M1194.73 244.718C1192.53 242.519 1190.91 246.456 1191.8 250.844C1192.42 253.906 1193.66 255.865 1196.46 257.019C1195.27 252.574 1194.73 246.715 1194.73 244.718Z" fill="#C77140"/>
<path d="M943.411 404.04C945.965 393.434 960.499 396.533 963.852 402.124C967.206 396.533 981.735 393.434 984.293 404.04C987.167 415.968 974.391 425.721 963.852 431.168C953.313 425.721 940.537 415.968 943.411 404.04Z" fill="url(#paint7_linear_375_2209)"/>
<path d="M962.735 420.164C962.74 420.164 962.745 420.164 962.745 420.164C963.052 420.159 963.325 419.958 963.416 419.666L966.573 409.85L969.044 414.42C969.169 414.65 969.413 414.799 969.677 414.799H981.72C982.118 414.799 982.438 414.478 982.438 414.08C982.438 413.683 982.118 413.362 981.72 413.362H970.108L967.037 407.685C966.898 407.431 966.625 407.287 966.338 407.311C966.05 407.335 965.806 407.532 965.72 407.805L962.697 417.204L959.574 408.423C959.473 408.135 959.2 407.944 958.898 407.944C958.893 407.944 958.889 407.944 958.884 407.944C958.577 407.949 958.304 408.15 958.213 408.447L955.976 415.532H947.162C946.764 415.532 946.443 415.853 946.443 416.25C946.443 416.648 946.764 416.969 947.162 416.969H956.498C956.81 416.969 957.087 416.768 957.183 416.466L958.932 410.923L962.046 419.685C962.161 419.973 962.429 420.164 962.735 420.164Z" fill="#FCF4E6"/>
<path d="M1314.41 249.04C1316.96 238.434 1331.5 241.533 1334.85 247.124C1338.2 241.533 1352.73 238.434 1355.29 249.04C1358.17 260.968 1345.39 270.721 1334.85 276.168C1324.31 270.721 1311.54 260.968 1314.41 249.04Z" fill="url(#paint8_linear_375_2209)"/>
<path d="M1333.74 265.164C1333.74 265.164 1333.74 265.164 1333.74 265.164C1334.05 265.159 1334.32 264.958 1334.42 264.666L1337.57 254.85L1340.04 259.42C1340.17 259.65 1340.41 259.799 1340.68 259.799H1352.72C1353.12 259.799 1353.44 259.478 1353.44 259.08C1353.44 258.683 1353.12 258.362 1352.72 258.362H1341.11L1338.04 252.685C1337.9 252.431 1337.63 252.287 1337.34 252.311C1337.05 252.335 1336.81 252.532 1336.72 252.805L1333.7 262.204L1330.57 253.423C1330.47 253.135 1330.2 252.944 1329.9 252.944C1329.89 252.944 1329.89 252.944 1329.88 252.944C1329.58 252.948 1329.3 253.15 1329.21 253.447L1326.98 260.532H1318.16C1317.76 260.532 1317.44 260.853 1317.44 261.25C1317.44 261.648 1317.76 261.969 1318.16 261.969H1327.5C1327.81 261.969 1328.09 261.768 1328.18 261.466L1329.93 255.923L1333.05 264.685C1333.16 264.972 1333.43 265.164 1333.74 265.164Z" fill="#FCF4E6"/>
<path d="M1329.84 541.859C1332.8 541.859 1353.4 575.392 1329.84 575.392C1306.29 575.392 1326.89 541.859 1329.84 541.859Z" fill="url(#paint9_linear_375_2209)"/>
<path d="M1324.34 560.901H1328.89V556.35C1328.89 555.756 1329.37 555.272 1329.96 555.272C1330.56 555.272 1331.04 555.756 1331.04 556.35V560.901H1335.59C1336.19 560.901 1336.67 561.384 1336.67 561.978C1336.67 562.572 1336.19 563.056 1335.59 563.056H1331.04V567.607C1331.04 568.201 1330.56 568.685 1329.96 568.685C1329.37 568.685 1328.89 568.201 1328.89 567.607V563.056H1324.34C1323.74 563.056 1323.26 562.572 1323.26 561.978C1323.26 561.384 1323.74 560.901 1324.34 560.901Z" fill="white"/>
<path d="M862.862 549.173C864.946 549.173 879.461 572.805 862.862 572.805C846.263 572.805 860.783 549.173 862.862 549.173Z" fill="url(#paint10_linear_375_2209)"/>
<path d="M858.982 562.596H862.192V559.387C862.192 558.965 862.532 558.625 862.953 558.625C863.375 558.625 863.71 558.965 863.71 559.387V562.596H866.92C867.342 562.596 867.682 562.936 867.682 563.358C867.682 563.779 867.342 564.12 866.92 564.12H863.71V567.329C863.71 567.751 863.37 568.086 862.953 568.086C862.532 568.086 862.192 567.746 862.192 567.329V564.12H858.982C858.561 564.12 858.221 563.779 858.221 563.358C858.221 562.936 858.561 562.596 858.982 562.596Z" fill="#FCF4E6"/>
<path d="M1147.23 326.164C1139.7 326.164 1133.6 320.06 1133.6 312.53C1133.6 305.001 1139.7 298.897 1147.23 298.897C1154.76 298.897 1160.87 305.001 1160.87 312.53C1160.87 320.06 1154.76 326.164 1147.23 326.164Z" fill="url(#paint11_linear_375_2209)"/>
<path d="M1140.58 311.261H1146.14V305.709C1146.14 305.225 1146.53 304.828 1147.02 304.828H1147.57C1148.05 304.828 1148.45 305.22 1148.45 305.709V311.261H1154C1154.49 311.261 1154.88 311.654 1154.88 312.143V312.693C1154.88 313.177 1154.49 313.575 1154 313.575H1148.45V319.127C1148.45 319.611 1148.06 320.008 1147.57 320.008H1147.02C1146.53 320.008 1146.14 319.616 1146.14 319.127V313.575H1140.58C1140.1 313.575 1139.7 313.182 1139.7 312.693V312.143C1139.7 311.654 1140.09 311.261 1140.58 311.261Z" fill="white"/>
<defs>
<linearGradient id="paint0_linear_375_2209" x1="720" y1="-410.631" x2="720" y2="867.29" gradientUnits="userSpaceOnUse">
<stop offset="0.285617" stop-color="white"/>
<stop offset="1" stop-color="#ABD0FF"/>
</linearGradient>
<linearGradient id="paint1_linear_375_2209" x1="1372.98" y1="133.237" x2="892.331" y2="558.283" gradientUnits="userSpaceOnUse">
<stop stop-color="#5753FF"/>
<stop offset="1" stop-color="#9FBCFF"/>
</linearGradient>
<linearGradient id="paint2_linear_375_2209" x1="1061.85" y1="288.372" x2="1061.85" y2="412.761" gradientUnits="userSpaceOnUse">
<stop stop-color="#FFC6A6"/>
<stop offset="1" stop-color="#FF8957"/>
</linearGradient>
<linearGradient id="paint3_linear_375_2209" x1="1059.52" y1="455.952" x2="1059.52" y2="533.068" gradientUnits="userSpaceOnUse">
<stop stop-color="#FFC6A6"/>
<stop offset="1" stop-color="#FF8957"/>
</linearGradient>
<linearGradient id="paint4_linear_375_2209" x1="1174.44" y1="403.382" x2="1174.44" y2="447.19" gradientUnits="userSpaceOnUse">
<stop stop-color="#FFC6A6"/>
<stop offset="1" stop-color="#FF8957"/>
</linearGradient>
<linearGradient id="paint5_linear_375_2209" x1="1296.75" y1="430.202" x2="1296.75" y2="490.06" gradientUnits="userSpaceOnUse">
<stop stop-color="#FFC6A6"/>
<stop offset="1" stop-color="#FF8957"/>
</linearGradient>
<linearGradient id="paint6_linear_375_2209" x1="1236.77" y1="207.189" x2="1236.77" y2="334.62" gradientUnits="userSpaceOnUse">
<stop stop-color="#FFC6A6"/>
<stop offset="1" stop-color="#FF8957"/>
</linearGradient>
<linearGradient id="paint7_linear_375_2209" x1="973.536" y1="430.832" x2="931.393" y2="375.493" gradientUnits="userSpaceOnUse">
<stop stop-color="#FF0053"/>
<stop offset="1" stop-color="#FF8AB0"/>
</linearGradient>
<linearGradient id="paint8_linear_375_2209" x1="1344.53" y1="275.832" x2="1302.39" y2="220.493" gradientUnits="userSpaceOnUse">
<stop stop-color="#FF0053"/>
<stop offset="1" stop-color="#FF8AB0"/>
</linearGradient>
<linearGradient id="paint9_linear_375_2209" x1="1337.11" y1="384.812" x2="1363.26" y2="390.161" gradientUnits="userSpaceOnUse">
<stop stop-color="#15D5FF"/>
<stop offset="1" stop-color="#26CBFF"/>
</linearGradient>
<linearGradient id="paint10_linear_375_2209" x1="867.983" y1="438.5" x2="886.41" y2="442.269" gradientUnits="userSpaceOnUse">
<stop stop-color="#15D5FF"/>
<stop offset="1" stop-color="#26CBFF"/>
</linearGradient>
<linearGradient id="paint11_linear_375_2209" x1="1156.11" y1="171.195" x2="1186.53" y2="180.546" gradientUnits="userSpaceOnUse">
<stop stop-color="#15D5FF"/>
<stop offset="1" stop-color="#26CBFF"/>
</linearGradient>
</defs>
</svg>
