<svg width="232" height="60" viewBox="0 0 232 60" fill="none" xmlns="http://www.w3.org/2000/svg">
<path fill-rule="evenodd" clip-rule="evenodd" d="M37.6957 0H0L1.77347 3.64547C3.69642 7.59819 4.69565 11.9363 4.69565 16.332V33C4.69565 47.9117 16.784 60 31.6957 60H37.6957C52.6073 60 64.6957 47.9117 64.6957 33V27C64.6957 12.0883 52.6074 0 37.6957 0ZM35.5554 8.88887H14.4443V30C14.4443 41.0457 23.3986 50 34.4443 50H35.5554C46.6011 50 55.5554 41.0457 55.5554 30V28.8889C55.5554 17.8432 46.601 8.88887 35.5554 8.88887Z" fill="url(#paint0_linear_151_4917)"/>
<path d="M20.0002 32.7868C23.3834 43.6767 33.3482 45.5485 37.8416 44.9317V38.734C37.2689 38.778 35.1455 38.8789 31.7623 37.9273C28.379 36.9758 26.8724 34.0203 26.4759 32.7868L20.0002 32.7868Z" fill="url(#paint1_linear_151_4917)"/>
<path d="M49.9999 26.6938C46.6167 15.8039 36.6519 13.9322 32.1585 14.5489V20.7467C32.7312 20.7026 34.8546 20.6018 38.2378 21.5533C41.6211 22.5049 43.1277 25.4603 43.5242 26.6938L49.9999 26.6938Z" fill="url(#paint2_linear_151_4917)"/>
<path fill-rule="evenodd" clip-rule="evenodd" d="M37.7092 14.8132H31.6299V26.9718H27.5505C26.4459 26.9718 25.5505 27.8673 25.5505 28.9718V30.7868C25.5505 31.8914 26.4459 32.7868 27.5505 32.7868H31.6299V40.7162H37.7092V32.7868H41.7883C42.8929 32.7868 43.7883 31.8914 43.7883 30.7868V28.9718C43.7883 27.8673 42.8929 26.9718 41.7883 26.9718H37.7092V14.8132Z" fill="url(#paint3_linear_151_4917)"/>
<path d="M104.054 17.44V42.2222H100.818V30.9867H88.1958V42.2222H84.9602V17.44H88.1958V28.32H100.818V17.44H104.054Z" fill="white"/>
<path d="M127.356 31.7334C127.356 32.3496 127.321 33.0015 127.249 33.6889H111.676C111.795 35.6089 112.446 37.1141 113.632 38.2045C114.841 39.2711 116.298 39.8045 118.005 39.8045C119.403 39.8045 120.565 39.4845 121.489 38.8445C122.438 38.1808 123.101 37.3037 123.481 36.2134H126.965C126.443 38.0859 125.401 39.6148 123.836 40.8C122.272 41.9615 120.328 42.5422 118.005 42.5422C116.156 42.5422 114.497 42.1274 113.027 41.2978C111.581 40.4682 110.443 39.2948 109.614 37.7778C108.784 36.2371 108.369 34.4593 108.369 32.4445C108.369 30.4297 108.772 28.6637 109.578 27.1467C110.384 25.6297 111.51 24.4682 112.956 23.6622C114.426 22.8326 116.109 22.4178 118.005 22.4178C119.854 22.4178 121.489 22.8208 122.912 23.6267C124.334 24.4326 125.424 25.5467 126.183 26.9689C126.965 28.3674 127.356 29.9556 127.356 31.7334ZM124.014 31.0578C124.014 29.8252 123.741 28.7704 123.196 27.8934C122.651 26.9926 121.904 26.3171 120.956 25.8667C120.032 25.3926 119.001 25.1556 117.863 25.1556C116.227 25.1556 114.829 25.6771 113.667 26.72C112.529 27.763 111.878 29.2089 111.712 31.0578H124.014Z" fill="white"/>
<path d="M130.418 32.4089C130.418 30.4178 130.821 28.6756 131.627 27.1822C132.433 25.6652 133.535 24.4919 134.934 23.6622C136.356 22.8326 137.932 22.4178 139.662 22.4178C141.369 22.4178 142.851 22.7852 144.107 23.52C145.363 24.2548 146.299 25.1793 146.916 26.2934V22.7378H150.187V42.2222H146.916V38.5956C146.276 39.7334 145.316 40.6815 144.036 41.44C142.779 42.1748 141.31 42.5422 139.627 42.5422C137.897 42.5422 136.332 42.1156 134.934 41.2622C133.535 40.4089 132.433 39.2119 131.627 37.6711C130.821 36.1304 130.418 34.3763 130.418 32.4089ZM146.916 32.4445C146.916 30.9748 146.619 29.6948 146.027 28.6045C145.434 27.5141 144.628 26.6845 143.609 26.1156C142.614 25.523 141.511 25.2267 140.302 25.2267C139.094 25.2267 137.991 25.5111 136.996 26.08C136 26.6489 135.206 27.4785 134.614 28.5689C134.021 29.6593 133.725 30.9393 133.725 32.4089C133.725 33.9022 134.021 35.2059 134.614 36.32C135.206 37.4104 136 38.2519 136.996 38.8445C137.991 39.4134 139.094 39.6978 140.302 39.6978C141.511 39.6978 142.614 39.4134 143.609 38.8445C144.628 38.2519 145.434 37.4104 146.027 36.32C146.619 35.2059 146.916 33.9141 146.916 32.4445Z" fill="white"/>
<path d="M158.89 15.9111V42.2222H155.655V15.9111H158.89Z" fill="white"/>
<path d="M179.658 17.44V20.0711H172.902V42.2222H169.667V20.0711H162.876V17.44H179.658Z" fill="white"/>
<path d="M182.432 32.4089C182.432 30.4178 182.835 28.6756 183.641 27.1822C184.447 25.6652 185.549 24.4919 186.947 23.6622C188.37 22.8326 189.946 22.4178 191.676 22.4178C193.383 22.4178 194.864 22.7852 196.121 23.52C197.377 24.2548 198.313 25.1793 198.93 26.2934V22.7378H202.201V42.2222H198.93V38.5956C198.29 39.7334 197.33 40.6815 196.05 41.44C194.793 42.1748 193.324 42.5422 191.641 42.5422C189.91 42.5422 188.346 42.1156 186.947 41.2622C185.549 40.4089 184.447 39.2119 183.641 37.6711C182.835 36.1304 182.432 34.3763 182.432 32.4089ZM198.93 32.4445C198.93 30.9748 198.633 29.6948 198.041 28.6045C197.448 27.5141 196.642 26.6845 195.623 26.1156C194.627 25.523 193.525 25.2267 192.316 25.2267C191.107 25.2267 190.005 25.5111 189.01 26.08C188.014 26.6489 187.22 27.4785 186.627 28.5689C186.035 29.6593 185.739 30.9393 185.739 32.4089C185.739 33.9022 186.035 35.2059 186.627 36.32C187.22 37.4104 188.014 38.2519 189.01 38.8445C190.005 39.4134 191.107 39.6978 192.316 39.6978C193.525 39.6978 194.627 39.4134 195.623 38.8445C196.642 38.2519 197.448 37.4104 198.041 36.32C198.633 35.2059 198.93 33.9141 198.93 32.4445Z" fill="white"/>
<path d="M210.904 15.9111V42.2222H207.669V15.9111H210.904Z" fill="white"/>
<path d="M227.299 42.2222L219.654 33.6178V42.2222H216.419V15.9111H219.654V31.3778L227.156 22.7378H231.672L222.499 32.4445L231.707 42.2222H227.299Z" fill="white"/>
<defs>
<linearGradient id="paint0_linear_151_4917" x1="4.17391" y1="-9.91304" x2="89.2174" y2="82.9565" gradientUnits="userSpaceOnUse">
<stop stop-color="#F385FF"/>
<stop offset="0.546952" stop-color="#44C8FE"/>
<stop offset="0.919307" stop-color="#00FF88"/>
</linearGradient>
<linearGradient id="paint1_linear_151_4917" x1="33.4803" y1="40.5842" x2="20.0002" y2="23.1393" gradientUnits="userSpaceOnUse">
<stop stop-color="#1BBAFA"/>
<stop offset="1" stop-color="#8DF2FF"/>
</linearGradient>
<linearGradient id="paint2_linear_151_4917" x1="34.8017" y1="14.5489" x2="47.3567" y2="22.8749" gradientUnits="userSpaceOnUse">
<stop stop-color="#2704F3"/>
<stop offset="1" stop-color="#F165CD"/>
</linearGradient>
<linearGradient id="paint3_linear_151_4917" x1="34.8016" y1="20.3638" x2="34.8016" y2="43.4916" gradientUnits="userSpaceOnUse">
<stop stop-color="#A13EEF"/>
<stop offset="0.449094" stop-color="#5F41F1"/>
<stop offset="1" stop-color="#12CBFB"/>
</linearGradient>
</defs>
</svg>
