<svg width="604" height="451" viewBox="0 0 604 451" fill="none" xmlns="http://www.w3.org/2000/svg">
<circle cx="300.073" cy="301.037" r="231.141" stroke="url(#paint0_linear_296_928)" stroke-width="3"/>
<circle cx="302" cy="302" r="300.5" stroke="url(#paint1_linear_296_928)" stroke-width="3"/>
<path d="M155.502 223.165C155.502 223.165 201.418 222.478 228.713 257.786C256.008 293.094 246.519 337.967 246.519 337.967C246.519 337.967 177.608 340.002 158.707 309.4C139.781 278.798 155.502 223.165 155.502 223.165Z" fill="#81F2EF"/>
<path d="M243.34 340.104C229.196 340.104 174.072 338.272 156.901 310.494C137.721 279.459 152.805 224.895 153.467 222.58C153.721 221.69 154.535 221.054 155.451 221.054C156.036 221.155 202.74 220.774 230.341 256.489C257.916 292.153 248.936 336.517 248.554 338.399C248.351 339.341 247.537 340.028 246.57 340.053C246.265 340.078 245.12 340.104 243.34 340.104ZM157.104 225.302C154.79 234.459 144.004 281.647 160.488 308.306C176.921 334.914 234.156 335.932 244.739 335.907C246.061 327.588 250.513 289.457 227.034 259.084C203.503 228.609 165.321 225.582 157.104 225.302Z" fill="#2D918A"/>
<path d="M220.165 320.771C219.351 320.771 218.563 320.288 218.232 319.474C211.669 303.905 199.688 286.557 190.784 274.753C190.098 273.838 190.276 272.515 191.191 271.803C192.107 271.09 193.43 271.294 194.142 272.21C203.173 284.216 215.358 301.87 222.099 317.846C222.557 318.914 222.048 320.135 220.979 320.593C220.725 320.72 220.445 320.771 220.165 320.771Z" fill="#2D918A"/>
<path d="M184.756 265.697C184.145 265.697 183.535 265.418 183.102 264.909C178.345 258.905 176.463 256.896 176.437 256.896C175.649 256.056 175.674 254.708 176.514 253.92C177.353 253.131 178.701 253.156 179.49 253.996C179.566 254.072 181.474 256.107 186.384 262.289C187.096 263.205 186.943 264.527 186.053 265.24C185.671 265.545 185.213 265.697 184.756 265.697Z" fill="#2D918A"/>
<path d="M93.0259 328.428C93.0259 328.428 104.575 386.452 137.085 408.812C169.594 431.172 206.76 436.107 245.222 421.429C283.684 406.752 262.265 321.814 194.931 309.502C127.647 297.19 93.0259 328.428 93.0259 328.428Z" fill="#81F2EF"/>
<path d="M201.875 431.859C178.803 431.859 156.494 424.711 135.889 410.542C128.41 405.403 121.44 398.001 115.157 388.589C114.521 387.622 114.775 386.325 115.742 385.663C116.709 385.028 118.006 385.282 118.642 386.249C124.645 395.228 131.259 402.224 138.28 407.057C170.637 429.341 207.37 433.614 244.484 419.445C257.051 414.637 263.563 401.079 261.909 383.145C259.137 353.179 235.123 318.965 194.575 311.562C135.075 300.7 101.217 324.612 95.3407 329.242C96.1293 332.701 98.6222 343.207 103.328 355.647C103.735 356.74 103.201 357.936 102.107 358.343C101.013 358.75 99.8178 358.216 99.4108 357.122C93.5601 341.579 91.0926 329.344 90.9908 328.835C90.8382 328.097 91.0926 327.359 91.6522 326.876C93.1022 325.579 127.8 295.078 195.363 307.441C237.972 315.225 263.207 351.246 266.107 382.764C267.938 402.682 260.434 417.868 246.011 423.388C231.155 429.035 216.375 431.859 201.875 431.859Z" fill="#2D918A"/>
<path d="M241.152 402.503C240.516 402.503 239.905 402.224 239.498 401.689C239.244 401.384 214.696 370.299 187.706 356.791C160.92 343.385 136.449 346.54 136.22 346.591C135.05 346.769 134.007 345.955 133.854 344.81C133.701 343.665 134.49 342.597 135.635 342.444C136.678 342.317 161.582 339.035 189.589 353.052C217.418 366.992 241.788 397.823 242.805 399.12C243.518 400.036 243.365 401.359 242.449 402.071C242.068 402.351 241.61 402.503 241.152 402.503Z" fill="#2D918A"/>
<path d="M367.503 436.641H304.365V465.971H367.503V436.641Z" fill="#6A8F9B"/>
<path d="M485.739 438.625H186.155C179.388 438.625 173.894 433.131 173.894 426.364V251.681C173.894 244.915 179.388 239.42 186.155 239.42H485.739C492.506 239.42 498 244.915 498 251.681V426.364C498 433.131 492.506 438.625 485.739 438.625Z" fill="#BCE4ED"/>
<path d="M485.739 447.02H186.155C174.758 447.02 165.499 437.761 165.499 426.364V251.681C165.499 240.285 174.758 231.025 186.155 231.025H485.739C497.135 231.025 506.395 240.285 506.395 251.681V426.364C506.395 437.761 497.135 447.02 485.739 447.02ZM186.155 247.84C184.018 247.84 182.288 249.57 182.288 251.706V426.39C182.288 428.527 184.018 430.256 186.155 430.256H485.739C487.876 430.256 489.606 428.527 489.606 426.39V251.706C489.606 249.57 487.876 247.84 485.739 247.84H186.155Z" fill="#6A8F9B"/>
<path d="M540.558 317.667H329.905C323.139 317.667 317.644 312.173 317.644 305.406V100.808C317.644 94.0412 323.139 88.5466 329.905 88.5466H540.558C547.325 88.5466 552.819 94.0412 552.819 100.808V305.432C552.819 312.173 547.35 317.667 540.558 317.667Z" fill="white"/>
<path d="M529.365 139.652L331.94 139.804V295.206L529.365 294.595V139.652Z" fill="#8088FF"/>
<path d="M331.94 298.004C331.203 298.004 330.49 297.699 329.956 297.19C329.422 296.656 329.142 295.943 329.142 295.206V139.804C329.142 138.253 330.389 137.006 331.94 137.006L529.365 136.854C530.103 136.854 530.815 137.159 531.349 137.668C531.884 138.202 532.164 138.914 532.164 139.652V294.595C532.164 296.147 530.917 297.393 529.365 297.393L331.94 298.004ZM334.739 142.603V292.382L526.567 291.797V142.45L334.739 142.603Z" fill="#8088FF"/>
<path d="M313.421 114.977C313.421 117.978 311.005 120.395 308.003 120.395C305.001 120.395 302.585 117.978 302.585 114.977C302.585 111.975 305.001 109.558 308.003 109.558C311.005 109.558 313.421 112.001 313.421 114.977Z" fill="#F7B0B0"/>
<path d="M349.187 114.977C349.187 117.978 346.771 120.395 343.769 120.395C340.767 120.395 338.351 117.978 338.351 114.977C338.351 111.975 340.767 109.558 343.769 109.558C346.771 109.558 349.187 112.001 349.187 114.977Z" fill="#F7B0B0"/>
<path d="M384.953 114.977C384.953 117.978 382.537 120.395 379.535 120.395C376.533 120.395 374.117 117.978 374.117 114.977C374.117 111.975 376.533 109.558 379.535 109.558C382.511 109.558 384.953 112.001 384.953 114.977Z" fill="#F7B0B0"/>
<path d="M420.719 114.977C420.719 117.978 418.303 120.395 415.301 120.395C412.299 120.395 409.883 117.978 409.883 114.977C409.883 111.975 412.299 109.558 415.301 109.558C418.277 109.558 420.719 112.001 420.719 114.977Z" fill="#F7B0B0"/>
<path d="M456.46 114.977C456.46 117.978 454.043 120.395 451.041 120.395C448.04 120.395 445.623 117.978 445.623 114.977C445.623 111.975 448.04 109.558 451.041 109.558C454.043 109.558 456.46 112.001 456.46 114.977Z" fill="#F7B0B0"/>
<path d="M492.226 114.977C492.226 117.978 489.809 120.395 486.807 120.395C483.806 120.395 481.389 117.978 481.389 114.977C481.389 111.975 483.806 109.558 486.807 109.558C489.809 109.558 492.226 112.001 492.226 114.977Z" fill="#F7B0B0"/>
<path d="M527.992 114.977C527.992 117.978 525.575 120.395 522.573 120.395C519.572 120.395 517.155 117.978 517.155 114.977C517.155 111.975 519.572 109.558 522.573 109.558C525.575 109.558 527.992 112.001 527.992 114.977Z" fill="#F7B0B0"/>
<path d="M517.155 151.964H492.226V282.436H517.155V151.964Z" fill="white"/>
<path d="M517.155 284.547H492.226C491.056 284.547 490.114 283.606 490.114 282.436V151.964C490.114 150.794 491.056 149.852 492.226 149.852H517.155C518.325 149.852 519.266 150.794 519.266 151.964V282.436C519.266 283.606 518.325 284.547 517.155 284.547ZM494.337 280.35H515.069V154.075H494.337V280.35Z" fill="white"/>
<path d="M517.155 191.902H492.226V282.436H517.155V191.902Z" fill="#5A60FF"/>
<path d="M517.155 284.547H492.226C491.056 284.547 490.114 283.606 490.114 282.436V191.902C490.114 190.731 491.056 189.79 492.226 189.79H517.155C518.325 189.79 519.266 190.731 519.266 191.902V282.436C519.266 283.606 518.325 284.547 517.155 284.547ZM494.337 280.35H515.069V194.013H494.337V280.35Z" fill="#5A60FF"/>
<path d="M471.417 151.964H446.488V282.436H471.417V151.964Z" fill="white"/>
<path d="M471.392 284.547H446.463C445.292 284.547 444.351 283.606 444.351 282.436V151.964C444.351 150.794 445.292 149.852 446.463 149.852H471.392C472.562 149.852 473.503 150.794 473.503 151.964V282.436C473.503 283.606 472.562 284.547 471.392 284.547ZM448.574 280.35H469.306V154.075H448.574V280.35Z" fill="white"/>
<path d="M471.417 178.292H446.488V282.436H471.417V178.292Z" fill="#5A60FF"/>
<path d="M471.392 284.547H446.463C445.292 284.547 444.351 283.606 444.351 282.436V178.292C444.351 177.122 445.292 176.181 446.463 176.181H471.392C472.562 176.181 473.503 177.122 473.503 178.292V282.436C473.503 283.606 472.562 284.547 471.392 284.547ZM448.574 280.35H469.306V180.404H448.574V280.35Z" fill="#5A60FF"/>
<path d="M425.654 151.964H400.725V282.436H425.654V151.964Z" fill="white"/>
<path d="M425.654 284.547H400.725C399.555 284.547 398.614 283.606 398.614 282.436V151.964C398.614 150.794 399.555 149.852 400.725 149.852H425.654C426.824 149.852 427.766 150.794 427.766 151.964V282.436C427.766 283.606 426.824 284.547 425.654 284.547ZM402.836 280.35H423.568V154.075H402.836V280.35Z" fill="white"/>
<path d="M425.654 166.87H400.725V282.436H425.654V166.87Z" fill="#5A60FF"/>
<path d="M425.654 284.547H400.725C399.555 284.547 398.614 283.606 398.614 282.436V166.87C398.614 165.7 399.555 164.759 400.725 164.759H425.654C426.824 164.759 427.766 165.7 427.766 166.87V282.436C427.766 283.606 426.824 284.547 425.654 284.547ZM402.836 280.35H423.568V168.982H402.836V280.35Z" fill="#5A60FF"/>
<path d="M540.558 319.779H533.537C532.367 319.779 531.426 318.838 531.426 317.667C531.426 316.497 532.367 315.556 533.537 315.556H540.558C546.154 315.556 550.708 311.003 550.708 305.406V266.104C550.708 264.934 551.649 263.993 552.819 263.993C553.989 263.993 554.931 264.934 554.931 266.104V305.406C554.931 313.343 548.495 319.779 540.558 319.779Z" fill="#939AA0"/>
<path d="M370.276 319.779H329.905C321.994 319.779 315.533 313.343 315.533 305.406V100.808C315.533 92.8965 321.969 86.4352 329.905 86.4352H540.558C548.469 86.4352 554.931 92.8711 554.931 100.808V247.814C554.931 248.985 553.989 249.926 552.819 249.926C551.649 249.926 550.708 248.985 550.708 247.814V100.808C550.708 95.2114 546.154 90.658 540.558 90.658H329.905C324.309 90.658 319.756 95.2114 319.756 100.808V305.432C319.756 311.028 324.309 315.582 329.905 315.582H370.276C371.446 315.582 372.387 316.523 372.387 317.693C372.387 318.838 371.446 319.779 370.276 319.779Z" fill="#939AA0"/>
<path d="M404.82 132.478C404.82 132.478 406.22 162.343 403.014 174.527C399.835 186.636 385.513 193.148 385.513 193.148C385.513 193.148 394.543 202.229 389.914 224.259C384.419 250.307 369.487 267.122 351.248 266.054C344.1 265.621 229.069 252.851 218.69 217.441C210.677 190.121 223.523 185.237 223.523 185.237C223.523 185.237 205.742 163.462 215.536 134.335C238.176 66.9242 344.405 98.7218 344.405 98.7218L395.536 108.872L404.82 132.478Z" fill="#773128"/>
<path d="M367.325 95.4149V105.437C367.325 105.437 357.302 153.337 354.835 164.047C352.316 174.807 347.661 184.168 333.594 190.045C329.676 191.673 322.554 193.021 316.779 192.843C316.398 197.498 315.838 203.374 315.838 203.374L345.143 217.721C345.143 217.721 320.595 258.015 315.965 258.015C311.31 258.015 266.666 212.913 266.666 212.913L291.545 200.194L292.435 186.967C289.128 185.517 285.083 181.472 283.532 179.513C280.835 176.206 278.826 172.34 277.477 168.473V168.422C275.29 162.317 274.628 156.161 275.061 151.557C275.112 151.048 275.239 150.259 275.341 149.267C273.28 149.929 270.075 150.158 266.157 147.97C258.984 144.052 255.066 132.122 262.189 123.982C266.157 119.454 274.857 118.945 279.614 123.041C282.082 105.666 284.269 86.7405 285.109 86.13C286.508 85.0616 348.424 78.9564 348.424 78.9564L367.325 95.4149Z" fill="url(#paint2_linear_296_928)"/>
<path d="M324.92 168.838C323.51 168.838 321.837 168.553 319.895 167.859C319.503 167.719 319.302 167.294 319.442 166.902C319.582 166.51 320.007 166.303 320.399 166.449C325.088 168.116 327.836 167.171 328.759 165.85C329.347 165.01 329.274 163.953 328.569 163.091C326.213 160.226 322.553 153.953 322.402 153.69C322.195 153.332 322.312 152.873 322.671 152.666C323.029 152.453 323.488 152.576 323.695 152.934C323.734 153.002 327.444 159.364 329.727 162.14C330.863 163.522 330.969 165.318 329.99 166.717C329.156 167.892 327.478 168.838 324.92 168.838Z" fill="url(#paint3_linear_296_928)"/>
<path d="M327.729 176.88C324.765 177.945 321.405 178.594 318.254 178.176C316.491 177.942 314.873 177.446 313.242 176.742C311.663 176.057 310.282 175.064 308.785 174.242C310.801 177.534 314.057 179.865 317.945 180.287C321.335 180.657 325.435 179.553 327.729 176.88Z" fill="url(#paint4_linear_296_928)"/>
<path d="M292.41 186.967C292.41 186.967 298.769 190.095 307.164 191.266C315.558 192.436 316.805 192.868 316.805 192.868L315.838 203.4L339.47 211.362L344.074 217.238L310.369 208.182L311.03 196.913C311.03 196.913 305.332 194.98 300.219 192.461C295.081 189.943 292.41 186.967 292.41 186.967Z" fill="#CC6148"/>
<path d="M320.875 124.363C320.875 124.363 321.765 120.421 320.926 118.64C320.086 116.859 314.719 116.859 309.224 118.589C303.73 120.319 300.779 124.313 300.779 124.313C300.779 124.313 308.639 122.735 312.887 122.71C317.11 122.685 320.875 124.363 320.875 124.363Z" fill="#773128"/>
<path d="M360.685 136.065C360.685 136.065 360.558 131.919 358.701 129.095C356.87 126.271 350.586 123.295 348.17 123.295C345.753 123.295 341.81 126.856 341.81 126.856C341.81 126.856 347.915 128.001 351.4 129.502C354.885 131.003 360.685 136.065 360.685 136.065Z" fill="#773128"/>
<path d="M306.986 139.168C306.4 142.068 307.342 144.688 309.097 145.045C310.852 145.401 312.735 143.34 313.32 140.44C313.905 137.54 312.964 134.92 311.208 134.564C309.453 134.208 307.571 136.268 306.986 139.168Z" fill="#773128"/>
<path d="M343.235 145.121C342.65 148.021 343.591 150.641 345.346 150.997C347.101 151.353 348.984 149.293 349.569 146.393C350.154 143.493 349.213 140.873 347.458 140.517C345.702 140.186 343.82 142.221 343.235 145.121Z" fill="#773128"/>
<path d="M317.644 84.3748C317.644 84.3748 326.115 103.809 338.02 109.533C349.95 115.257 353.156 113.73 353.156 113.73C353.156 113.73 354.351 121.133 369.385 132.3C378.696 139.219 390.372 141.483 400.14 141.127C414.207 140.618 430.182 130.163 424.459 98.442C418.735 66.7462 408 63.3883 398.715 59.827C389.405 56.2402 377.373 55.7823 377.373 55.7823C377.373 55.7823 366.994 35.0503 346.389 34.7959C325.784 34.567 318.229 49.7026 318.229 49.7026C318.229 49.7026 312.175 37.4161 292.384 43.6229C272.593 49.8298 274.018 67.8654 274.018 67.8654C274.018 67.8654 259.696 61.5314 241.355 78.931C222.989 96.3307 208.642 134.361 212.559 158.781C216.986 186.407 231.663 195.336 249.648 197.142C282.743 200.449 275.849 153.897 277.681 140.059C279.512 126.195 280.301 123.855 280.301 123.855C280.301 123.855 289.484 130.341 304.06 111.059C314.464 97.2464 317.644 84.3748 317.644 84.3748Z" fill="#A54D3C"/>
<path d="M283.964 127.62L277.477 168.397C275.29 162.292 274.628 156.136 275.061 151.531C275.112 151.023 275.239 150.234 275.341 149.242C273.28 149.903 270.075 150.132 266.157 147.945C258.984 144.027 255.066 132.097 262.189 123.956C266.157 119.428 274.857 118.92 279.614 123.015L283.964 127.62Z" fill="#F9AA8F"/>
<path d="M277.376 141.203C276.765 141.203 276.18 140.796 276.027 140.16C275.977 140.008 274.934 136.37 270.38 135.709C269.617 135.607 269.083 134.895 269.21 134.132C269.312 133.369 269.973 132.834 270.787 132.936C277.223 133.877 278.673 139.194 278.749 139.423C278.953 140.16 278.495 140.924 277.732 141.127C277.605 141.203 277.477 141.203 277.376 141.203Z" fill="#CC6148"/>
<path d="M366.155 430.18H276.841L255.372 218.077L269.388 211.133C269.617 211.031 269.846 210.904 269.999 210.853C270.177 210.751 270.329 210.675 270.457 210.624C270.558 210.573 270.635 210.573 270.635 210.573L277.477 207.215C277.477 207.215 300.499 231.254 310.191 239.496C319.145 247.128 322.63 235.96 324.97 229.982C327.489 223.648 329.778 207.953 329.778 207.953L334.153 209.861L351.299 217.263L366.155 430.18Z" fill="#FF7769"/>
<path d="M322.045 430.18H222.429C221.87 429.722 221.59 429.519 221.59 429.519L220.14 378.363C220.14 378.363 216.273 278.366 221.081 254.759C222.862 245.805 220.343 237.385 232.121 229.499C239.244 224.793 251.734 218.917 260.536 214.923C265.013 212.964 268.549 211.438 269.999 210.827C270.177 210.726 270.329 210.649 270.456 210.599C270.558 210.548 270.635 210.548 270.635 210.548L270.685 210.649C271.856 212.379 291.087 240.794 299.023 268.852C305.459 291.441 318.026 325.273 321.256 389.301C321.943 401.766 322.223 415.324 322.045 430.18Z" fill="white"/>
<path d="M268.803 248.12L290.095 262.06L280.072 283.021C280.072 283.021 296.887 308.561 306.172 324.078C315.482 339.544 321.511 394.363 321.511 394.363C318.255 330.336 312.277 288.617 305.841 266.028C297.879 237.97 278.673 209.556 277.503 207.826L277.452 207.724C277.452 207.724 277.172 206.554 276.155 206.554C275.137 206.554 268.091 209.352 267.48 210.42C267.429 210.599 267.379 211.158 267.379 212.099C267.302 219.426 268.803 248.12 268.803 248.12Z" fill="#DD4231"/>
<path d="M393.144 389.708L392.483 430.155H344.354C344.303 419.115 344.176 403.038 344.074 385.282V385.104C343.693 342.368 343.133 290.143 342.294 275.974C340.996 252.546 334.942 214.694 334.179 209.81C334.179 209.479 334.128 209.301 334.128 209.301C334.128 209.301 338.554 210.141 344.151 212.43C353.003 216.068 354.58 217.187 362.975 221.944C372.667 227.439 382.257 235.452 385.615 250.918C389.303 267.732 390.982 312.147 390.982 312.147L393.144 389.708Z" fill="white"/>
<path d="M329.854 208.589C329.854 208.589 336.646 250.206 338.045 275.262C338.885 289.431 343.667 354.68 344.074 397.416C344.812 393.219 346.567 345.955 349.035 331.887C351.68 316.879 360.685 277.272 360.685 277.272L347.356 258.219L358.676 242.015C358.676 242.015 344.227 218.433 339.902 211.692C339.241 210.675 338.783 210.013 338.681 209.912C337.842 209.072 331.05 206.935 329.88 207.164C328.735 207.47 329.854 208.589 329.854 208.589Z" fill="#DD4231"/>
<path d="M457.223 360.963H405.126H394.518C394.518 360.963 385.691 360.531 380.832 357.046C375.999 353.561 373.481 347.634 373.481 347.634L373.43 360.989H213.628C206.861 360.989 201.367 366.483 201.367 373.25V398.891C201.367 405.658 206.861 411.152 213.628 411.152H360.66H457.197C463.964 411.152 469.459 405.658 469.459 398.891V373.25C469.484 366.432 463.989 360.963 457.223 360.963Z" fill="white"/>
<path d="M232.656 386.935C232.656 389.937 230.239 392.354 227.237 392.354C224.235 392.354 221.819 389.937 221.819 386.935C221.819 383.934 224.235 381.517 227.237 381.517C230.239 381.517 232.656 383.934 232.656 386.935Z" fill="#939AA0"/>
<path d="M268.421 386.935C268.421 389.937 266.005 392.354 263.003 392.354C260.001 392.354 257.585 389.937 257.585 386.935C257.585 383.934 260.001 381.517 263.003 381.517C265.979 381.517 268.421 383.934 268.421 386.935Z" fill="#939AA0"/>
<path d="M304.187 386.935C304.187 389.937 301.771 392.354 298.769 392.354C295.767 392.354 293.351 389.937 293.351 386.935C293.351 383.934 295.767 381.517 298.769 381.517C301.745 381.517 304.187 383.934 304.187 386.935Z" fill="#939AA0"/>
<path d="M339.928 386.935C339.928 389.937 337.511 392.354 334.51 392.354C331.508 392.354 329.091 389.937 329.091 386.935C329.091 383.934 331.508 381.517 334.51 381.517C337.511 381.517 339.928 383.934 339.928 386.935Z" fill="#939AA0"/>
<path d="M375.694 386.935C375.694 389.937 373.277 392.354 370.276 392.354C367.274 392.354 364.857 389.937 364.857 386.935C364.857 383.934 367.274 381.517 370.276 381.517C373.277 381.517 375.694 383.934 375.694 386.935Z" fill="#939AA0"/>
<path d="M411.46 386.935C411.46 389.937 409.043 392.354 406.041 392.354C403.04 392.354 400.623 389.937 400.623 386.935C400.623 383.934 403.04 381.517 406.041 381.517C409.043 381.517 411.46 383.934 411.46 386.935Z" fill="#939AA0"/>
<path d="M447.226 386.935C447.226 389.937 444.809 392.354 441.807 392.354C438.806 392.354 436.389 389.937 436.389 386.935C436.389 383.934 438.806 381.517 441.807 381.517C444.809 381.517 447.226 383.934 447.226 386.935Z" fill="#939AA0"/>
<path d="M397.342 413.213H384.266C383.096 413.213 382.155 412.272 382.155 411.102C382.155 409.931 383.096 408.99 384.266 408.99H397.342C398.512 408.99 399.453 409.931 399.453 411.102C399.453 412.272 398.512 413.213 397.342 413.213Z" fill="#939AA0"/>
<path d="M370.276 413.213H213.628C205.717 413.213 199.255 406.777 199.255 398.866V373.224C199.255 365.313 205.691 358.877 213.628 358.877H225.787C226.957 358.877 227.899 359.818 227.899 360.989C227.899 362.159 226.957 363.1 225.787 363.1H213.628C208.031 363.1 203.478 367.653 203.478 373.25V398.891C203.478 404.488 208.031 409.041 213.628 409.041H370.276C371.446 409.041 372.387 409.982 372.387 411.152C372.387 412.272 371.446 413.213 370.276 413.213Z" fill="#939AA0"/>
<path d="M244.713 363.049H236.497C235.326 363.049 234.385 362.108 234.385 360.938C234.385 359.767 235.326 358.826 236.497 358.826H244.713C245.883 358.826 246.825 359.767 246.825 360.938C246.825 362.108 245.858 363.049 244.713 363.049Z" fill="#939AA0"/>
<path d="M415.428 363.049H394.518C394.035 363.024 384.902 362.54 379.586 358.725C378.009 357.58 376.635 356.206 375.516 354.858L375.49 360.963C375.49 362.108 374.549 363.049 373.379 363.049H296.48C295.309 363.049 294.368 362.108 294.368 360.938C294.368 359.767 295.309 358.826 296.48 358.826H371.293L371.344 347.583C371.344 346.591 372.056 345.726 373.023 345.522C373.99 345.319 374.982 345.853 375.363 346.743C375.389 346.794 377.754 352.212 382.028 355.29C385.615 357.86 392.305 358.724 394.594 358.826H415.403C416.573 358.826 417.514 359.767 417.514 360.938C417.514 362.108 416.598 363.049 415.428 363.049Z" fill="#939AA0"/>
<path d="M233.139 12.8174H122.839C116.073 12.8174 110.578 18.312 110.578 25.0786V148.682C110.578 155.449 116.073 160.943 122.839 160.943H185.824C187.681 161.096 194.829 161.808 199.052 164.835C203.885 168.32 206.403 174.248 206.403 174.248L206.454 160.943H233.139C239.905 160.943 245.4 155.449 245.4 148.682V25.0786C245.4 18.312 239.905 12.8174 233.139 12.8174Z" fill="white"/>
<path d="M188.326 84.3543C202.152 78.671 208.752 62.8559 203.069 49.0303C197.386 35.2047 181.571 28.604 167.745 34.2873C153.919 39.9707 147.319 55.7858 153.002 69.6113C158.685 83.4369 174.5 90.0376 188.326 84.3543Z" fill="#6A8F9B"/>
<path d="M194.473 80.7625C189.869 84.2984 184.171 86.3589 177.989 86.3589C171.808 86.3589 166.16 84.2984 161.632 80.8643C164.558 75.2679 169.366 71.2741 175.013 70.2312V66.0339C170.358 64.6348 167 60.1068 167 54.7139C167 48.2272 171.935 42.9361 177.989 42.9361C184.094 42.9361 188.978 48.2018 188.978 54.7139C188.978 60.0305 185.671 64.5839 181.143 66.0339V70.2312C186.765 71.2996 191.573 75.217 194.473 80.7625Z" fill="white"/>
<path d="M178.015 89.1571C171.477 89.1571 165.219 87.0712 159.979 83.1028C152.449 77.3284 148.15 68.654 148.15 59.2928C148.15 42.8344 161.556 29.4285 178.015 29.4285C194.473 29.4285 207.879 42.8344 207.879 59.2928C207.879 68.654 203.631 77.303 196.203 82.9756C190.937 87.0203 184.628 89.1571 178.015 89.1571ZM178.015 35.0503C164.634 35.0503 153.747 45.9378 153.747 59.3182C153.747 66.9242 157.257 73.9706 163.362 78.6766C171.909 85.1124 184.272 85.1124 192.794 78.5749C198.823 73.9451 202.282 66.9497 202.282 59.3437C202.282 45.9124 191.395 35.0503 178.015 35.0503Z" fill="#1E5259"/>
<path d="M229.069 126.78H129.25C127.698 126.78 126.452 125.534 126.452 123.982C126.452 122.43 127.698 121.184 129.25 121.184H229.069C230.62 121.184 231.867 122.43 231.867 123.982C231.867 125.534 230.62 126.78 229.069 126.78Z" fill="#939AA0"/>
<path d="M229.069 142.45H129.25C127.698 142.45 126.452 141.203 126.452 139.652C126.452 138.1 127.698 136.854 129.25 136.854H229.069C230.62 136.854 231.867 138.1 231.867 139.652C231.867 141.203 230.62 142.45 229.069 142.45Z" fill="#939AA0"/>
<path d="M229.069 100.681H129.25V111.746H229.069V100.681Z" fill="#939AA0"/>
<path d="M110.578 86.8168C109.408 86.8168 108.467 85.8756 108.467 84.7054V25.0786C108.467 17.1673 114.902 10.7061 122.839 10.7061H233.164C241.075 10.7061 247.511 17.1419 247.511 25.0786V32.2776C247.511 33.4477 246.57 34.3889 245.4 34.3889C244.23 34.3889 243.288 33.4477 243.288 32.2776V25.0786C243.288 19.4822 238.735 14.9288 233.139 14.9288H122.839C117.243 14.9288 112.689 19.4822 112.689 25.0786V84.7054C112.664 85.8756 111.723 86.8168 110.578 86.8168Z" fill="#939AA0"/>
<path d="M245.4 58.8603C244.23 58.8603 243.289 57.9191 243.289 56.749V47.1588C243.289 45.9887 244.23 45.0475 245.4 45.0475C246.57 45.0475 247.511 45.9887 247.511 47.1588V56.749C247.511 57.9191 246.57 58.8603 245.4 58.8603Z" fill="#939AA0"/>
<path d="M206.403 176.359C205.589 176.359 204.801 175.876 204.47 175.087C204.445 175.036 202.079 169.618 197.805 166.54C193.964 163.792 187.02 163.131 185.646 163.029H122.814C114.903 163.029 108.441 156.593 108.441 148.657V132.911C108.441 131.74 109.383 130.799 110.553 130.799C111.723 130.799 112.664 131.74 112.664 132.911V148.682C112.664 154.279 117.217 158.832 122.814 158.832H185.799C188.139 159.01 195.618 159.799 200.247 163.106C201.825 164.25 203.198 165.624 204.317 166.972L204.343 160.893C204.343 159.748 205.284 158.807 206.454 158.807H229.069C230.239 158.807 231.18 159.748 231.18 160.918C231.18 162.088 230.239 163.029 229.069 163.029H208.566L208.515 174.248C208.515 175.24 207.803 176.104 206.836 176.308C206.683 176.333 206.556 176.359 206.403 176.359Z" fill="#939AA0"/>
<path d="M158.637 206.082C178.972 185.747 178.972 152.777 158.637 132.442C138.302 112.107 105.332 112.107 84.9972 132.442C64.6621 152.777 64.6621 185.747 84.9972 206.082C105.332 226.417 138.302 226.417 158.637 206.082Z" fill="white"/>
<path d="M116.76 223.19C116.683 223.19 116.632 223.19 116.556 223.19C111.265 222.682 106.101 221.41 101.217 219.4C100.149 218.968 99.6398 217.721 100.072 216.653C100.505 215.584 101.751 215.076 102.82 215.508C107.322 217.365 112.079 218.535 116.963 219.019C118.108 219.12 118.973 220.163 118.846 221.308C118.744 222.376 117.828 223.19 116.76 223.19Z" fill="#939AA0"/>
<path d="M131.488 222.554C130.496 222.554 129.606 221.842 129.428 220.85C129.199 219.705 129.962 218.612 131.107 218.408C154.688 213.982 171.808 193.326 171.808 169.287C171.808 141.738 149.397 119.327 121.847 119.327C107.755 119.327 94.2469 125.33 84.7839 135.76C76.4402 144.968 71.8614 156.873 71.8614 169.287C71.8614 176.995 73.5657 184.372 76.9235 191.24C77.4323 192.283 76.9999 193.53 75.9569 194.064C74.9139 194.573 73.6675 194.14 73.1333 193.097C69.4956 185.644 67.6386 177.656 67.6386 169.313C67.6386 155.856 72.6245 142.933 81.6296 132.961C91.8811 121.642 106.533 115.129 121.796 115.129C151.661 115.129 175.979 139.423 175.979 169.313C175.979 195.361 157.435 217.747 131.87 222.554C131.743 222.529 131.615 222.554 131.488 222.554Z" fill="#939AA0"/>
<path d="M98.8712 160.33C101.727 148.468 117.983 151.935 121.733 158.187C125.484 151.935 141.734 148.468 144.595 160.33C147.81 173.671 133.52 184.58 121.733 190.672C109.946 184.58 95.6566 173.677 98.8712 160.33Z" fill="url(#paint5_linear_296_928)"/>
<path d="M120.479 178.37C120.485 178.37 120.49 178.37 120.49 178.37C120.833 178.365 121.138 178.14 121.24 177.813L124.771 166.835L127.536 171.946C127.675 172.203 127.948 172.369 128.243 172.369H141.712C142.157 172.369 142.516 172.01 142.516 171.566C142.516 171.121 142.157 170.762 141.712 170.762H128.725L125.291 164.413C125.135 164.129 124.83 163.968 124.508 163.995C124.187 164.022 123.914 164.242 123.817 164.547L120.436 175.059L116.943 165.238C116.831 164.917 116.525 164.702 116.188 164.702C116.182 164.702 116.177 164.702 116.172 164.702C115.829 164.708 115.523 164.933 115.422 165.265L112.919 173.189H103.061C102.616 173.189 102.257 173.548 102.257 173.993C102.257 174.437 102.616 174.796 103.061 174.796H113.503C113.852 174.796 114.162 174.571 114.27 174.234L116.225 168.035L119.708 177.834C119.836 178.156 120.142 178.37 120.479 178.37Z" fill="#FCF4E6"/>
<path d="M199.036 45.6636C190.614 45.6636 183.787 38.8367 183.787 30.4153C183.787 21.9938 190.614 15.1669 199.036 15.1669C207.457 15.1669 214.284 21.9938 214.284 30.4153C214.284 38.8367 207.457 45.6636 199.036 45.6636Z" fill="#06FF79"/>
<path d="M191.599 28.9956H197.809V22.7859C197.809 22.2448 198.248 21.8001 198.795 21.8001H199.411C199.952 21.8001 200.397 22.2394 200.397 22.7859V28.9956H206.606C207.148 28.9956 207.592 29.435 207.592 29.9815V30.5976C207.592 31.1387 207.153 31.5834 206.606 31.5834H200.397V37.7931C200.397 38.3343 199.957 38.779 199.411 38.779H198.795C198.254 38.779 197.809 38.3396 197.809 37.7931V31.5834H191.599C191.058 31.5834 190.613 31.1441 190.613 30.5976V29.9815C190.613 29.435 191.053 28.9956 191.599 28.9956Z" fill="white"/>
<defs>
<linearGradient id="paint0_linear_296_928" x1="300.482" y1="13.1995" x2="300.073" y2="533.678" gradientUnits="userSpaceOnUse">
<stop stop-color="#D8F6FF"/>
<stop offset="1" stop-color="#06FFE1" stop-opacity="0"/>
</linearGradient>
<linearGradient id="paint1_linear_296_928" x1="302.531" y1="-71.652" x2="302" y2="604" gradientUnits="userSpaceOnUse">
<stop stop-color="#D8F6FF"/>
<stop offset="1" stop-color="#06FFE1" stop-opacity="0"/>
</linearGradient>
<linearGradient id="paint2_linear_296_928" x1="312.874" y1="78.9564" x2="312.874" y2="258.015" gradientUnits="userSpaceOnUse">
<stop stop-color="#FFC6A6"/>
<stop offset="1" stop-color="#FF8957"/>
</linearGradient>
<linearGradient id="paint3_linear_296_928" x1="325.028" y1="152.561" x2="325.028" y2="168.838" gradientUnits="userSpaceOnUse">
<stop stop-color="#C77140"/>
<stop offset="1" stop-color="#C77140"/>
</linearGradient>
<linearGradient id="paint4_linear_296_928" x1="318.966" y1="173.643" x2="316.563" y2="180.147" gradientUnits="userSpaceOnUse">
<stop stop-color="#C77140"/>
<stop offset="1" stop-color="#C77140"/>
</linearGradient>
<linearGradient id="paint5_linear_296_928" x1="121.733" y1="152.457" x2="121.733" y2="190.672" gradientUnits="userSpaceOnUse">
<stop stop-color="#FF417F"/>
<stop offset="1" stop-color="#FF00E5"/>
</linearGradient>
</defs>
</svg>
